<svg width="512" height="227" viewBox="0 0 512 227" fill="none" xmlns="http://www.w3.org/2000/svg">
<path d="M32.384 30.832C35.0293 31.4293 37.12 32.752 38.656 34.8C40.2347 36.8053 41.024 39.1093 41.024 41.712C41.024 45.552 39.7013 48.56 37.056 50.736C34.4107 52.912 30.6987 54 25.92 54H3.584V8.88H25.216C29.824 8.88 33.4293 9.904 36.032 11.952C38.6773 14 40 16.88 40 20.592C40 23.2373 39.296 25.456 37.888 27.248C36.5227 28.9973 34.688 30.192 32.384 30.832ZM16.128 26.8H22.464C25.6213 26.8 27.2 25.4987 27.2 22.896C27.2 20.208 25.6213 18.864 22.464 18.864H16.128V26.8ZM23.424 43.888C26.5813 43.888 28.16 42.5653 28.16 39.92C28.16 38.5547 27.7333 37.5093 26.88 36.784C26.0693 36.0587 24.896 35.696 23.36 35.696H16.128V43.888H23.424ZM83.2575 18.096V54H70.6495V48.88C69.5828 50.5013 68.1108 51.824 66.2335 52.848C64.3562 53.8293 62.2015 54.32 59.7695 54.32C55.5882 54.32 52.2815 52.9547 49.8495 50.224C47.4602 47.4507 46.2655 43.696 46.2655 38.96V18.096H58.7455V37.36C58.7455 39.408 59.2788 41.0293 60.3455 42.224C61.4548 43.376 62.9055 43.952 64.6975 43.952C66.5322 43.952 67.9828 43.376 69.0495 42.224C70.1162 41.0293 70.6495 39.408 70.6495 37.36V18.096H83.2575ZM129.053 18.096L106.269 71.088H92.6365L101.213 52.464L86.4925 18.096H100.445L107.997 38.448L115.293 18.096H129.053ZM183.24 18.096L160.456 71.088H146.824L155.4 52.464L140.68 18.096H154.632L162.184 38.448L169.48 18.096H183.24ZM203.226 54.448C199.642 54.448 196.42 53.7013 193.562 52.208C190.746 50.7147 188.527 48.5813 186.906 45.808C185.284 43.0347 184.474 39.7707 184.474 36.016C184.474 32.304 185.284 29.0613 186.906 26.288C188.57 23.5147 190.81 21.3813 193.626 19.888C196.484 18.3947 199.706 17.648 203.29 17.648C206.874 17.648 210.074 18.3947 212.89 19.888C215.748 21.3813 217.988 23.5147 219.61 26.288C221.274 29.0613 222.106 32.304 222.106 36.016C222.106 39.728 221.274 42.992 219.61 45.808C217.988 48.5813 215.748 50.7147 212.89 52.208C210.031 53.7013 206.81 54.448 203.226 54.448ZM203.226 43.568C204.975 43.568 206.426 42.928 207.578 41.648C208.772 40.3253 209.37 38.448 209.37 36.016C209.37 33.584 208.772 31.728 207.578 30.448C206.426 29.168 204.996 28.528 203.29 28.528C201.583 28.528 200.154 29.168 199.002 30.448C197.85 31.728 197.274 33.584 197.274 36.016C197.274 38.4907 197.828 40.368 198.938 41.648C200.047 42.928 201.476 43.568 203.226 43.568ZM263.945 18.096V54H251.337V48.88C250.27 50.5013 248.798 51.824 246.921 52.848C245.044 53.8293 242.889 54.32 240.457 54.32C236.276 54.32 232.969 52.9547 230.537 50.224C228.148 47.4507 226.953 43.696 226.953 38.96V18.096H239.433V37.36C239.433 39.408 239.966 41.0293 241.033 42.224C242.142 43.376 243.593 43.952 245.385 43.952C247.22 43.952 248.67 43.376 249.737 42.224C250.804 41.0293 251.337 39.408 251.337 37.36V18.096H263.945ZM283.628 24.432C285.036 22.384 286.743 20.7627 288.748 19.568C290.753 18.3733 292.908 17.776 295.212 17.776V31.152H291.692C288.961 31.152 286.935 31.6853 285.612 32.752C284.289 33.8187 283.628 35.6747 283.628 38.32V54H271.084V18.096H283.628V24.432ZM1.536 100.016C1.536 96.304 2.19733 93.0613 3.52 90.288C4.88533 87.5147 6.74133 85.3813 9.088 83.888C11.4347 82.3947 14.0373 81.648 16.896 81.648C19.2 81.648 21.248 82.1387 23.04 83.12C24.8747 84.0587 26.304 85.36 27.328 87.024V70.64H39.936V118H27.328V113.008C26.3467 114.672 24.96 115.995 23.168 116.976C21.376 117.957 19.264 118.448 16.832 118.448C13.9733 118.448 11.3707 117.701 9.024 116.208C6.72 114.715 4.88533 112.581 3.52 109.808C2.19733 106.992 1.536 103.728 1.536 100.016ZM27.392 100.016C27.392 97.712 26.752 95.8987 25.472 94.576C24.2347 93.2533 22.6987 92.592 20.864 92.592C18.9867 92.592 17.4293 93.2533 16.192 94.576C14.9547 95.856 14.336 97.6693 14.336 100.016C14.336 102.32 14.9547 104.155 16.192 105.52C17.4293 106.843 18.9867 107.504 20.864 107.504C22.6987 107.504 24.2347 106.843 25.472 105.52C26.752 104.197 27.392 102.363 27.392 100.016ZM59.628 88.432C61.036 86.384 62.7427 84.7627 64.748 83.568C66.7533 82.3733 68.908 81.776 71.212 81.776V95.152H67.692C64.9613 95.152 62.9347 95.6853 61.612 96.752C60.2893 97.8187 59.628 99.6747 59.628 102.32V118H47.084V82.096H59.628V88.432ZM110.013 99.632C110.013 100.613 109.949 101.595 109.821 102.576H86.077C86.205 104.539 86.7383 106.011 87.677 106.992C88.6583 107.931 89.8957 108.4 91.389 108.4C93.4797 108.4 94.973 107.461 95.869 105.584H109.245C108.69 108.059 107.602 110.277 105.981 112.24C104.402 114.16 102.397 115.675 99.965 116.784C97.533 117.893 94.845 118.448 91.901 118.448C88.3597 118.448 85.2023 117.701 82.429 116.208C79.6983 114.715 77.5437 112.581 75.965 109.808C74.429 107.035 73.661 103.771 73.661 100.016C73.661 96.2613 74.429 93.0187 75.965 90.288C77.501 87.5147 79.6343 85.3813 82.365 83.888C85.1383 82.3947 88.317 81.648 91.901 81.648C95.4423 81.648 98.5783 82.3733 101.309 83.824C104.04 85.2747 106.173 87.3653 107.709 90.096C109.245 92.784 110.013 95.9627 110.013 99.632ZM97.213 96.496C97.213 94.96 96.701 93.7653 95.677 92.912C94.653 92.016 93.373 91.568 91.837 91.568C90.301 91.568 89.0423 91.9947 88.061 92.848C87.0797 93.6587 86.4397 94.8747 86.141 96.496H97.213ZM113.099 100.016C113.099 96.304 113.76 93.0613 115.083 90.288C116.448 87.5147 118.283 85.3813 120.587 83.888C122.933 82.3947 125.536 81.648 128.395 81.648C130.869 81.648 133.003 82.1387 134.795 83.12C136.587 84.1013 137.973 85.424 138.955 87.088V82.096H151.499V118H138.955V113.008C137.973 114.672 136.565 115.995 134.731 116.976C132.939 117.957 130.827 118.448 128.395 118.448C125.536 118.448 122.933 117.701 120.587 116.208C118.283 114.715 116.448 112.581 115.083 109.808C113.76 106.992 113.099 103.728 113.099 100.016ZM138.955 100.016C138.955 97.712 138.315 95.8987 137.035 94.576C135.797 93.2533 134.261 92.592 132.427 92.592C130.549 92.592 128.992 93.2533 127.755 94.576C126.517 95.856 125.899 97.6693 125.899 100.016C125.899 102.32 126.517 104.155 127.755 105.52C128.992 106.843 130.549 107.504 132.427 107.504C134.261 107.504 135.797 106.843 137.035 105.52C138.315 104.197 138.955 102.363 138.955 100.016ZM205.559 81.776C210.081 81.776 213.623 83.1413 216.183 85.872C218.785 88.6027 220.087 92.336 220.087 97.072V118H207.543V98.736C207.543 96.816 207.009 95.3227 205.943 94.256C204.876 93.1893 203.425 92.656 201.591 92.656C199.756 92.656 198.305 93.1893 197.239 94.256C196.172 95.3227 195.639 96.816 195.639 98.736V118H183.095V98.736C183.095 96.816 182.561 95.3227 181.495 94.256C180.471 93.1893 179.041 92.656 177.207 92.656C175.329 92.656 173.857 93.1893 172.791 94.256C171.724 95.3227 171.191 96.816 171.191 98.736V118H158.647V82.096H171.191V86.832C172.3 85.296 173.729 84.08 175.479 83.184C177.271 82.2453 179.319 81.776 181.623 81.776C184.268 81.776 186.615 82.352 188.663 83.504C190.753 84.656 192.396 86.2773 193.591 88.368C194.871 86.4053 196.556 84.8267 198.647 83.632C200.737 82.3947 203.041 81.776 205.559 81.776ZM251.753 87.088C252.734 85.424 254.121 84.1013 255.913 83.12C257.705 82.1387 259.817 81.648 262.249 81.648C265.108 81.648 267.689 82.3947 269.993 83.888C272.34 85.3813 274.174 87.5147 275.497 90.288C276.862 93.0613 277.545 96.304 277.545 100.016C277.545 103.728 276.862 106.992 275.497 109.808C274.174 112.581 272.34 114.715 269.993 116.208C267.689 117.701 265.108 118.448 262.249 118.448C259.817 118.448 257.705 117.957 255.913 116.976C254.164 115.995 252.777 114.672 251.753 113.008V135.152H239.209V82.096H251.753V87.088ZM264.809 100.016C264.809 97.6693 264.169 95.856 262.889 94.576C261.652 93.2533 260.116 92.592 258.281 92.592C256.446 92.592 254.889 93.2533 253.609 94.576C252.372 95.8987 251.753 97.712 251.753 100.016C251.753 102.363 252.372 104.197 253.609 105.52C254.889 106.843 256.446 107.504 258.281 107.504C260.116 107.504 261.652 106.843 262.889 105.52C264.169 104.155 264.809 102.32 264.809 100.016ZM295.253 70.64V118H282.709V70.64H295.253ZM300.349 100.016C300.349 96.304 301.01 93.0613 302.333 90.288C303.698 87.5147 305.533 85.3813 307.837 83.888C310.183 82.3947 312.786 81.648 315.645 81.648C318.119 81.648 320.253 82.1387 322.045 83.12C323.837 84.1013 325.223 85.424 326.205 87.088V82.096H338.749V118H326.205V113.008C325.223 114.672 323.815 115.995 321.981 116.976C320.189 117.957 318.077 118.448 315.645 118.448C312.786 118.448 310.183 117.701 307.837 116.208C305.533 114.715 303.698 112.581 302.333 109.808C301.01 106.992 300.349 103.728 300.349 100.016ZM326.205 100.016C326.205 97.712 325.565 95.8987 324.285 94.576C323.047 93.2533 321.511 92.592 319.677 92.592C317.799 92.592 316.242 93.2533 315.005 94.576C313.767 95.856 313.149 97.6693 313.149 100.016C313.149 102.32 313.767 104.155 315.005 105.52C316.242 106.843 317.799 107.504 319.677 107.504C321.511 107.504 323.047 106.843 324.285 105.52C325.565 104.197 326.205 102.363 326.205 100.016ZM369.385 81.776C373.523 81.776 376.809 83.1627 379.241 85.936C381.673 88.6667 382.889 92.3787 382.889 97.072V118H370.345V98.736C370.345 96.688 369.811 95.088 368.745 93.936C367.678 92.7413 366.249 92.144 364.457 92.144C362.579 92.144 361.107 92.7413 360.041 93.936C358.974 95.088 358.441 96.688 358.441 98.736V118H345.897V82.096H358.441V87.216C359.55 85.5947 361.043 84.2933 362.921 83.312C364.798 82.288 366.953 81.776 369.385 81.776ZM410.956 107.312V118H405.516C396.342 118 391.756 113.456 391.756 104.368V92.528H387.34V82.096H391.756V73.392H404.364V82.096H410.892V92.528H404.364V104.56C404.364 105.541 404.577 106.245 405.003 106.672C405.473 107.099 406.241 107.312 407.308 107.312H410.956ZM432.005 118.448C428.762 118.448 425.861 117.915 423.301 116.848C420.784 115.739 418.778 114.245 417.285 112.368C415.834 110.448 415.024 108.293 414.853 105.904H427.013C427.184 107.056 427.717 107.952 428.613 108.592C429.509 109.232 430.618 109.552 431.941 109.552C432.965 109.552 433.776 109.339 434.373 108.912C434.97 108.485 435.269 107.931 435.269 107.248C435.269 106.352 434.778 105.691 433.797 105.264C432.816 104.837 431.194 104.368 428.933 103.856C426.373 103.344 424.24 102.768 422.533 102.128C420.826 101.488 419.333 100.443 418.053 98.992C416.816 97.5413 416.197 95.5787 416.197 93.104C416.197 90.9707 416.773 89.0507 417.925 87.344C419.077 85.5947 420.762 84.208 422.981 83.184C425.242 82.16 427.952 81.648 431.109 81.648C435.802 81.648 439.493 82.8 442.181 85.104C444.869 87.408 446.426 90.4373 446.853 94.192H435.525C435.312 93.04 434.8 92.1653 433.989 91.568C433.221 90.928 432.176 90.608 430.853 90.608C429.829 90.608 429.04 90.8 428.485 91.184C427.973 91.568 427.717 92.1013 427.717 92.784C427.717 93.6373 428.208 94.2987 429.189 94.768C430.17 95.1947 431.749 95.6427 433.925 96.112C436.528 96.6667 438.682 97.2853 440.389 97.968C442.138 98.6507 443.653 99.76 444.933 101.296C446.256 102.789 446.917 104.837 446.917 107.44C446.917 109.531 446.298 111.408 445.061 113.072C443.866 114.736 442.138 116.059 439.877 117.04C437.658 117.979 435.034 118.448 432.005 118.448Z" fill="black"/>
<path d="M16.96 166.808H6.24V173.176C6.688 172.579 7.34933 172.077 8.224 171.672C9.12 171.267 10.0693 171.064 11.072 171.064C12.864 171.064 14.3147 171.448 15.424 172.216C16.5547 172.984 17.3547 173.955 17.824 175.128C18.3147 176.301 18.56 177.539 18.56 178.84C18.56 180.419 18.2507 181.827 17.632 183.064C17.0347 184.28 16.128 185.24 14.912 185.944C13.7173 186.648 12.2453 187 10.496 187C8.17067 187 6.304 186.424 4.896 185.272C3.488 184.12 2.64533 182.595 2.368 180.696H5.92C6.15467 181.699 6.67733 182.499 7.488 183.096C8.29867 183.672 9.312 183.96 10.528 183.96C12.0427 183.96 13.1733 183.501 13.92 182.584C14.688 181.667 15.072 180.451 15.072 178.936C15.072 177.4 14.688 176.227 13.92 175.416C13.152 174.584 12.0213 174.168 10.528 174.168C9.48267 174.168 8.59733 174.435 7.872 174.968C7.168 175.48 6.656 176.184 6.336 177.08H2.88V163.608H16.96V166.808ZM22.3575 175.032C22.3575 171.341 22.9762 168.461 24.2135 166.392C25.4722 164.301 27.6268 163.256 30.6775 163.256C33.7282 163.256 35.8722 164.301 37.1095 166.392C38.3682 168.461 38.9975 171.341 38.9975 175.032C38.9975 178.765 38.3682 181.688 37.1095 183.8C35.8722 185.891 33.7282 186.936 30.6775 186.936C27.6268 186.936 25.4722 185.891 24.2135 183.8C22.9762 181.688 22.3575 178.765 22.3575 175.032ZM35.4135 175.032C35.4135 173.304 35.2962 171.843 35.0615 170.648C34.8482 169.453 34.4002 168.483 33.7175 167.736C33.0348 166.968 32.0215 166.584 30.6775 166.584C29.3335 166.584 28.3202 166.968 27.6375 167.736C26.9548 168.483 26.4962 169.453 26.2615 170.648C26.0482 171.843 25.9415 173.304 25.9415 175.032C25.9415 176.824 26.0482 178.328 26.2615 179.544C26.4748 180.76 26.9228 181.741 27.6055 182.488C28.3095 183.235 29.3335 183.608 30.6775 183.608C32.0215 183.608 33.0348 183.235 33.7175 182.488C34.4215 181.741 34.8802 180.76 35.0935 179.544C35.3068 178.328 35.4135 176.824 35.4135 175.032ZM60.5215 176.984H54.0575V183.608H50.6655V176.984H44.2015V173.912H50.6655V167.288H54.0575V173.912H60.5215V176.984Z" fill="#1E1E1E"/>
<path d="M10.098 211.216C10.098 211.852 9.948 212.452 9.648 213.016C9.348 213.58 8.868 214.042 8.208 214.402C7.548 214.75 6.702 214.924 5.67 214.924H3.402V220H1.35V207.49H5.67C6.63 207.49 7.44 207.658 8.1 207.994C8.772 208.318 9.27 208.762 9.594 209.326C9.93 209.89 10.098 210.52 10.098 211.216ZM5.67 213.25C6.45 213.25 7.032 213.076 7.416 212.728C7.8 212.368 7.992 211.864 7.992 211.216C7.992 209.848 7.218 209.164 5.67 209.164H3.402V213.25H5.67ZM14.1071 206.68V220H12.0551V206.68H14.1071ZM16.1172 214.996C16.1172 214 16.3212 213.118 16.7292 212.35C17.1492 211.582 17.7132 210.988 18.4212 210.568C19.1412 210.136 19.9332 209.92 20.7972 209.92C21.5772 209.92 22.2552 210.076 22.8312 210.388C23.4192 210.688 23.8872 211.066 24.2352 211.522V210.082H26.3052V220H24.2352V218.524C23.8872 218.992 23.4132 219.382 22.8132 219.694C22.2132 220.006 21.5292 220.162 20.7612 220.162C19.9092 220.162 19.1292 219.946 18.4212 219.514C17.7132 219.07 17.1492 218.458 16.7292 217.678C16.3212 216.886 16.1172 215.992 16.1172 214.996ZM24.2352 215.032C24.2352 214.348 24.0912 213.754 23.8032 213.25C23.5272 212.746 23.1612 212.362 22.7052 212.098C22.2492 211.834 21.7572 211.702 21.2292 211.702C20.7012 211.702 20.2092 211.834 19.7532 212.098C19.2972 212.35 18.9252 212.728 18.6372 213.232C18.3612 213.724 18.2232 214.312 18.2232 214.996C18.2232 215.68 18.3612 216.28 18.6372 216.796C18.9252 217.312 19.2972 217.708 19.7532 217.984C20.2212 218.248 20.7132 218.38 21.2292 218.38C21.7572 218.38 22.2492 218.248 22.7052 217.984C23.1612 217.72 23.5272 217.336 23.8032 216.832C24.0912 216.316 24.2352 215.716 24.2352 215.032ZM34.0044 209.92C34.7844 209.92 35.4804 210.082 36.0924 210.406C36.7164 210.73 37.2024 211.21 37.5504 211.846C37.8984 212.482 38.0724 213.25 38.0724 214.15V220H36.0384V214.456C36.0384 213.568 35.8164 212.89 35.3724 212.422C34.9284 211.942 34.3224 211.702 33.5544 211.702C32.7864 211.702 32.1744 211.942 31.7184 212.422C31.2744 212.89 31.0524 213.568 31.0524 214.456V220H29.0004V210.082H31.0524V211.216C31.3884 210.808 31.8144 210.49 32.3304 210.262C32.8584 210.034 33.4164 209.92 34.0044 209.92ZM43.0838 211.756V217.246C43.0838 217.618 43.1678 217.888 43.3358 218.056C43.5158 218.212 43.8158 218.29 44.2358 218.29H45.4958V220H43.8758C42.9518 220 42.2438 219.784 41.7518 219.352C41.2598 218.92 41.0138 218.218 41.0138 217.246V211.756H39.8438V210.082H41.0138V207.616H43.0838V210.082H45.4958V211.756H43.0838ZM56.1849 220.126C55.3449 220.126 54.5889 219.982 53.9169 219.694C53.2449 219.394 52.7169 218.974 52.3329 218.434C51.9489 217.894 51.7569 217.264 51.7569 216.544H53.9529C54.0009 217.084 54.2109 217.528 54.5829 217.876C54.9669 218.224 55.5009 218.398 56.1849 218.398C56.8929 218.398 57.4449 218.23 57.8409 217.894C58.2369 217.546 58.4349 217.102 58.4349 216.562C58.4349 216.142 58.3089 215.8 58.0569 215.536C57.8169 215.272 57.5109 215.068 57.1389 214.924C56.7789 214.78 56.2749 214.624 55.6269 214.456C54.8109 214.24 54.1449 214.024 53.6289 213.808C53.1249 213.58 52.6929 213.232 52.3329 212.764C51.9729 212.296 51.7929 211.672 51.7929 210.892C51.7929 210.172 51.9729 209.542 52.3329 209.002C52.6929 208.462 53.1969 208.048 53.8449 207.76C54.4929 207.472 55.2429 207.328 56.0949 207.328C57.3069 207.328 58.2969 207.634 59.0649 208.246C59.8449 208.846 60.2769 209.674 60.3609 210.73H58.0929C58.0569 210.274 57.8409 209.884 57.4449 209.56C57.0489 209.236 56.5269 209.074 55.8789 209.074C55.2909 209.074 54.8109 209.224 54.4389 209.524C54.0669 209.824 53.8809 210.256 53.8809 210.82C53.8809 211.204 53.9949 211.522 54.2229 211.774C54.4629 212.014 54.7629 212.206 55.1229 212.35C55.4829 212.494 55.9749 212.65 56.5989 212.818C57.4269 213.046 58.0989 213.274 58.6149 213.502C59.1429 213.73 59.5869 214.084 59.9469 214.564C60.3189 215.032 60.5049 215.662 60.5049 216.454C60.5049 217.09 60.3309 217.69 59.9829 218.254C59.6469 218.818 59.1489 219.274 58.4889 219.622C57.8409 219.958 57.0729 220.126 56.1849 220.126ZM64.9782 211.54C65.3262 211.084 65.8002 210.7 66.4002 210.388C67.0002 210.076 67.6782 209.92 68.4342 209.92C69.2982 209.92 70.0842 210.136 70.7922 210.568C71.5122 210.988 72.0762 211.582 72.4842 212.35C72.8922 213.118 73.0962 214 73.0962 214.996C73.0962 215.992 72.8922 216.886 72.4842 217.678C72.0762 218.458 71.5122 219.07 70.7922 219.514C70.0842 219.946 69.2982 220.162 68.4342 220.162C67.6782 220.162 67.0062 220.012 66.4182 219.712C65.8302 219.4 65.3502 219.016 64.9782 218.56V224.716H62.9262V210.082H64.9782V211.54ZM71.0082 214.996C71.0082 214.312 70.8642 213.724 70.5762 213.232C70.3002 212.728 69.9282 212.35 69.4602 212.098C69.0042 211.834 68.5122 211.702 67.9842 211.702C67.4682 211.702 66.9762 211.834 66.5082 212.098C66.0522 212.362 65.6802 212.746 65.3922 213.25C65.1162 213.754 64.9782 214.348 64.9782 215.032C64.9782 215.716 65.1162 216.316 65.3922 216.832C65.6802 217.336 66.0522 217.72 66.5082 217.984C66.9762 218.248 67.4682 218.38 67.9842 218.38C68.5122 218.38 69.0042 218.248 69.4602 217.984C69.9282 217.708 70.3002 217.312 70.5762 216.796C70.8642 216.28 71.0082 215.68 71.0082 214.996ZM84.2154 214.798C84.2154 215.17 84.1914 215.506 84.1434 215.806H76.5654C76.6254 216.598 76.9194 217.234 77.4474 217.714C77.9754 218.194 78.6234 218.434 79.3914 218.434C80.4954 218.434 81.2754 217.972 81.7314 217.048H83.9454C83.6454 217.96 83.0994 218.71 82.3074 219.298C81.5274 219.874 80.5554 220.162 79.3914 220.162C78.4434 220.162 77.5914 219.952 76.8354 219.532C76.0914 219.1 75.5034 218.5 75.0714 217.732C74.6514 216.952 74.4414 216.052 74.4414 215.032C74.4414 214.012 74.6454 213.118 75.0534 212.35C75.4734 211.57 76.0554 210.97 76.7994 210.55C77.5554 210.13 78.4194 209.92 79.3914 209.92C80.3274 209.92 81.1614 210.124 81.8934 210.532C82.6254 210.94 83.1954 211.516 83.6034 212.26C84.0114 212.992 84.2154 213.838 84.2154 214.798ZM82.0734 214.15C82.0614 213.394 81.7914 212.788 81.2634 212.332C80.7354 211.876 80.0814 211.648 79.3014 211.648C78.5934 211.648 77.9874 211.876 77.4834 212.332C76.9794 212.776 76.6794 213.382 76.5834 214.15H82.0734ZM85.5508 215.032C85.5508 214.012 85.7548 213.118 86.1628 212.35C86.5828 211.57 87.1588 210.97 87.8908 210.55C88.6228 210.13 89.4628 209.92 90.4108 209.92C91.6108 209.92 92.6008 210.208 93.3808 210.784C94.1728 211.348 94.7068 212.158 94.9828 213.214H92.7688C92.5888 212.722 92.3008 212.338 91.9048 212.062C91.5088 211.786 91.0108 211.648 90.4108 211.648C89.5708 211.648 88.8988 211.948 88.3948 212.548C87.9028 213.136 87.6568 213.964 87.6568 215.032C87.6568 216.1 87.9028 216.934 88.3948 217.534C88.8988 218.134 89.5708 218.434 90.4108 218.434C91.5988 218.434 92.3848 217.912 92.7688 216.868H94.9828C94.6948 217.876 94.1548 218.68 93.3628 219.28C92.5708 219.868 91.5868 220.162 90.4108 220.162C89.4628 220.162 88.6228 219.952 87.8908 219.532C87.1588 219.1 86.5828 218.5 86.1628 217.732C85.7548 216.952 85.5508 216.052 85.5508 215.032ZM98.0717 208.768C97.6997 208.768 97.3877 208.642 97.1357 208.39C96.8837 208.138 96.7577 207.826 96.7577 207.454C96.7577 207.082 96.8837 206.77 97.1357 206.518C97.3877 206.266 97.6997 206.14 98.0717 206.14C98.4317 206.14 98.7377 206.266 98.9897 206.518C99.2417 206.77 99.3677 207.082 99.3677 207.454C99.3677 207.826 99.2417 208.138 98.9897 208.39C98.7377 208.642 98.4317 208.768 98.0717 208.768ZM99.0797 210.082V220H97.0277V210.082H99.0797ZM110.864 214.798C110.864 215.17 110.84 215.506 110.792 215.806H103.214C103.274 216.598 103.568 217.234 104.096 217.714C104.624 218.194 105.272 218.434 106.04 218.434C107.144 218.434 107.924 217.972 108.38 217.048H110.594C110.294 217.96 109.748 218.71 108.956 219.298C108.176 219.874 107.204 220.162 106.04 220.162C105.092 220.162 104.24 219.952 103.484 219.532C102.74 219.1 102.152 218.5 101.72 217.732C101.3 216.952 101.09 216.052 101.09 215.032C101.09 214.012 101.294 213.118 101.702 212.35C102.122 211.57 102.704 210.97 103.448 210.55C104.204 210.13 105.068 209.92 106.04 209.92C106.976 209.92 107.81 210.124 108.542 210.532C109.274 210.94 109.844 211.516 110.252 212.26C110.66 212.992 110.864 213.838 110.864 214.798ZM108.722 214.15C108.71 213.394 108.44 212.788 107.912 212.332C107.384 211.876 106.73 211.648 105.95 211.648C105.242 211.648 104.636 211.876 104.132 212.332C103.628 212.776 103.328 213.382 103.232 214.15H108.722ZM116.483 220.162C115.703 220.162 115.001 220.024 114.377 219.748C113.765 219.46 113.279 219.076 112.919 218.596C112.559 218.104 112.367 217.558 112.343 216.958H114.467C114.503 217.378 114.701 217.732 115.061 218.02C115.433 218.296 115.895 218.434 116.447 218.434C117.023 218.434 117.467 218.326 117.779 218.11C118.103 217.882 118.265 217.594 118.265 217.246C118.265 216.874 118.085 216.598 117.725 216.418C117.377 216.238 116.819 216.04 116.051 215.824C115.307 215.62 114.701 215.422 114.233 215.23C113.765 215.038 113.357 214.744 113.009 214.348C112.673 213.952 112.505 213.43 112.505 212.782C112.505 212.254 112.661 211.774 112.973 211.342C113.285 210.898 113.729 210.55 114.305 210.298C114.893 210.046 115.565 209.92 116.321 209.92C117.449 209.92 118.355 210.208 119.039 210.784C119.735 211.348 120.107 212.122 120.155 213.106H118.103C118.067 212.662 117.887 212.308 117.563 212.044C117.239 211.78 116.801 211.648 116.249 211.648C115.709 211.648 115.295 211.75 115.007 211.954C114.719 212.158 114.575 212.428 114.575 212.764C114.575 213.028 114.671 213.25 114.863 213.43C115.055 213.61 115.289 213.754 115.565 213.862C115.841 213.958 116.249 214.084 116.789 214.24C117.509 214.432 118.097 214.63 118.553 214.834C119.021 215.026 119.423 215.314 119.759 215.698C120.095 216.082 120.269 216.592 120.281 217.228C120.281 217.792 120.125 218.296 119.813 218.74C119.501 219.184 119.057 219.532 118.481 219.784C117.917 220.036 117.251 220.162 116.483 220.162Z" fill="#1E1E1E"/>
<line x1="170.5" y1="157.5" x2="170.5" y2="221.5" stroke="#1E1E1E"/>
<path d="M219.44 167V163.672H226.096V187H222.416V167H219.44ZM231.108 175.032C231.108 171.341 231.726 168.461 232.964 166.392C234.222 164.301 236.377 163.256 239.428 163.256C242.478 163.256 244.622 164.301 245.86 166.392C247.118 168.461 247.748 171.341 247.748 175.032C247.748 178.765 247.118 181.688 245.86 183.8C244.622 185.891 242.478 186.936 239.428 186.936C236.377 186.936 234.222 185.891 232.964 183.8C231.726 181.688 231.108 178.765 231.108 175.032ZM244.164 175.032C244.164 173.304 244.046 171.843 243.812 170.648C243.598 169.453 243.15 168.483 242.468 167.736C241.785 166.968 240.772 166.584 239.428 166.584C238.084 166.584 237.07 166.968 236.388 167.736C235.705 168.483 235.246 169.453 235.012 170.648C234.798 171.843 234.692 173.304 234.692 175.032C234.692 176.824 234.798 178.328 235.012 179.544C235.225 180.76 235.673 181.741 236.356 182.488C237.06 183.235 238.084 183.608 239.428 183.608C240.772 183.608 241.785 183.235 242.468 182.488C243.172 181.741 243.63 180.76 243.844 179.544C244.057 178.328 244.164 176.824 244.164 175.032ZM251.608 175.032C251.608 171.341 252.226 168.461 253.464 166.392C254.722 164.301 256.877 163.256 259.928 163.256C262.978 163.256 265.122 164.301 266.36 166.392C267.618 168.461 268.248 171.341 268.248 175.032C268.248 178.765 267.618 181.688 266.36 183.8C265.122 185.891 262.978 186.936 259.928 186.936C256.877 186.936 254.722 185.891 253.464 183.8C252.226 181.688 251.608 178.765 251.608 175.032ZM264.664 175.032C264.664 173.304 264.546 171.843 264.312 170.648C264.098 169.453 263.65 168.483 262.968 167.736C262.285 166.968 261.272 166.584 259.928 166.584C258.584 166.584 257.57 166.968 256.888 167.736C256.205 168.483 255.746 169.453 255.512 170.648C255.298 171.843 255.192 173.304 255.192 175.032C255.192 176.824 255.298 178.328 255.512 179.544C255.725 180.76 256.173 181.741 256.856 182.488C257.56 183.235 258.584 183.608 259.928 183.608C261.272 183.608 262.285 183.235 262.968 182.488C263.672 181.741 264.13 180.76 264.344 179.544C264.557 178.328 264.664 176.824 264.664 175.032ZM289.772 176.984H283.308V183.608H279.916V176.984H273.452V173.912H279.916V167.288H283.308V173.912H289.772V176.984Z" fill="#1E1E1E"/>
<path d="M218.666 213.718C218.666 212.494 218.948 211.396 219.512 210.424C220.088 209.452 220.862 208.696 221.834 208.156C222.818 207.604 223.892 207.328 225.056 207.328C226.388 207.328 227.57 207.658 228.602 208.318C229.646 208.966 230.402 209.89 230.87 211.09H228.404C228.08 210.43 227.63 209.938 227.054 209.614C226.478 209.29 225.812 209.128 225.056 209.128C224.228 209.128 223.49 209.314 222.842 209.686C222.194 210.058 221.684 210.592 221.312 211.288C220.952 211.984 220.772 212.794 220.772 213.718C220.772 214.642 220.952 215.452 221.312 216.148C221.684 216.844 222.194 217.384 222.842 217.768C223.49 218.14 224.228 218.326 225.056 218.326C225.812 218.326 226.478 218.164 227.054 217.84C227.63 217.516 228.08 217.024 228.404 216.364H230.87C230.402 217.564 229.646 218.488 228.602 219.136C227.57 219.784 226.388 220.108 225.056 220.108C223.88 220.108 222.806 219.838 221.834 219.298C220.862 218.746 220.088 217.984 219.512 217.012C218.948 216.04 218.666 214.942 218.666 213.718ZM242.254 210.082V220H240.202V218.83C239.878 219.238 239.452 219.562 238.924 219.802C238.408 220.03 237.856 220.144 237.268 220.144C236.488 220.144 235.786 219.982 235.162 219.658C234.55 219.334 234.064 218.854 233.704 218.218C233.356 217.582 233.182 216.814 233.182 215.914V210.082H235.216V215.608C235.216 216.496 235.438 217.18 235.882 217.66C236.326 218.128 236.932 218.362 237.7 218.362C238.468 218.362 239.074 218.128 239.518 217.66C239.974 217.18 240.202 216.496 240.202 215.608V210.082H242.254ZM248.561 220.162C247.781 220.162 247.079 220.024 246.455 219.748C245.843 219.46 245.357 219.076 244.997 218.596C244.637 218.104 244.445 217.558 244.421 216.958H246.545C246.581 217.378 246.779 217.732 247.139 218.02C247.511 218.296 247.973 218.434 248.525 218.434C249.101 218.434 249.545 218.326 249.857 218.11C250.181 217.882 250.343 217.594 250.343 217.246C250.343 216.874 250.163 216.598 249.803 216.418C249.455 216.238 248.897 216.04 248.129 215.824C247.385 215.62 246.779 215.422 246.311 215.23C245.843 215.038 245.435 214.744 245.087 214.348C244.751 213.952 244.583 213.43 244.583 212.782C244.583 212.254 244.739 211.774 245.051 211.342C245.363 210.898 245.807 210.55 246.383 210.298C246.971 210.046 247.643 209.92 248.399 209.92C249.527 209.92 250.433 210.208 251.117 210.784C251.813 211.348 252.185 212.122 252.233 213.106H250.181C250.145 212.662 249.965 212.308 249.641 212.044C249.317 211.78 248.879 211.648 248.327 211.648C247.787 211.648 247.373 211.75 247.085 211.954C246.797 212.158 246.653 212.428 246.653 212.764C246.653 213.028 246.749 213.25 246.941 213.43C247.133 213.61 247.367 213.754 247.643 213.862C247.919 213.958 248.327 214.084 248.867 214.24C249.587 214.432 250.175 214.63 250.631 214.834C251.099 215.026 251.501 215.314 251.837 215.698C252.173 216.082 252.347 216.592 252.359 217.228C252.359 217.792 252.203 218.296 251.891 218.74C251.579 219.184 251.135 219.532 250.559 219.784C249.995 220.036 249.329 220.162 248.561 220.162ZM256.971 211.756V217.246C256.971 217.618 257.055 217.888 257.223 218.056C257.403 218.212 257.703 218.29 258.123 218.29H259.383V220H257.763C256.839 220 256.131 219.784 255.639 219.352C255.147 218.92 254.901 218.218 254.901 217.246V211.756H253.731V210.082H254.901V207.616H256.971V210.082H259.383V211.756H256.971ZM265.576 220.162C264.64 220.162 263.794 219.952 263.038 219.532C262.282 219.1 261.688 218.5 261.256 217.732C260.824 216.952 260.608 216.052 260.608 215.032C260.608 214.024 260.83 213.13 261.274 212.35C261.718 211.57 262.324 210.97 263.092 210.55C263.86 210.13 264.718 209.92 265.666 209.92C266.614 209.92 267.472 210.13 268.24 210.55C269.008 210.97 269.614 211.57 270.058 212.35C270.502 213.13 270.724 214.024 270.724 215.032C270.724 216.04 270.496 216.934 270.04 217.714C269.584 218.494 268.96 219.1 268.168 219.532C267.388 219.952 266.524 220.162 265.576 220.162ZM265.576 218.38C266.104 218.38 266.596 218.254 267.052 218.002C267.52 217.75 267.898 217.372 268.186 216.868C268.474 216.364 268.618 215.752 268.618 215.032C268.618 214.312 268.48 213.706 268.204 213.214C267.928 212.71 267.562 212.332 267.106 212.08C266.65 211.828 266.158 211.702 265.63 211.702C265.102 211.702 264.61 211.828 264.154 212.08C263.71 212.332 263.356 212.71 263.092 213.214C262.828 213.706 262.696 214.312 262.696 215.032C262.696 216.1 262.966 216.928 263.506 217.516C264.058 218.092 264.748 218.38 265.576 218.38ZM284.758 209.92C285.538 209.92 286.234 210.082 286.846 210.406C287.47 210.73 287.956 211.21 288.304 211.846C288.664 212.482 288.844 213.25 288.844 214.15V220H286.81V214.456C286.81 213.568 286.588 212.89 286.144 212.422C285.7 211.942 285.094 211.702 284.326 211.702C283.558 211.702 282.946 211.942 282.49 212.422C282.046 212.89 281.824 213.568 281.824 214.456V220H279.79V214.456C279.79 213.568 279.568 212.89 279.124 212.422C278.68 211.942 278.074 211.702 277.306 211.702C276.538 211.702 275.926 211.942 275.47 212.422C275.026 212.89 274.804 213.568 274.804 214.456V220H272.752V210.082H274.804V211.216C275.14 210.808 275.566 210.49 276.082 210.262C276.598 210.034 277.15 209.92 277.738 209.92C278.53 209.92 279.238 210.088 279.862 210.424C280.486 210.76 280.966 211.246 281.302 211.882C281.602 211.282 282.07 210.808 282.706 210.46C283.342 210.1 284.026 209.92 284.758 209.92ZM300.545 214.798C300.545 215.17 300.521 215.506 300.473 215.806H292.895C292.955 216.598 293.249 217.234 293.777 217.714C294.305 218.194 294.953 218.434 295.721 218.434C296.825 218.434 297.605 217.972 298.061 217.048H300.275C299.975 217.96 299.429 218.71 298.637 219.298C297.857 219.874 296.885 220.162 295.721 220.162C294.773 220.162 293.921 219.952 293.165 219.532C292.421 219.1 291.833 218.5 291.401 217.732C290.981 216.952 290.771 216.052 290.771 215.032C290.771 214.012 290.975 213.118 291.383 212.35C291.803 211.57 292.385 210.97 293.129 210.55C293.885 210.13 294.749 209.92 295.721 209.92C296.657 209.92 297.491 210.124 298.223 210.532C298.955 210.94 299.525 211.516 299.933 212.26C300.341 212.992 300.545 213.838 300.545 214.798ZM298.403 214.15C298.391 213.394 298.121 212.788 297.593 212.332C297.065 211.876 296.411 211.648 295.631 211.648C294.923 211.648 294.317 211.876 293.813 212.332C293.309 212.776 293.009 213.382 292.913 214.15H298.403ZM304.617 211.522C304.917 211.018 305.313 210.628 305.805 210.352C306.309 210.064 306.903 209.92 307.587 209.92V212.044H307.065C306.261 212.044 305.649 212.248 305.229 212.656C304.821 213.064 304.617 213.772 304.617 214.78V220H302.565V210.082H304.617V211.522ZM313.073 220.162C312.293 220.162 311.591 220.024 310.967 219.748C310.355 219.46 309.869 219.076 309.509 218.596C309.149 218.104 308.957 217.558 308.933 216.958H311.057C311.093 217.378 311.291 217.732 311.651 218.02C312.023 218.296 312.485 218.434 313.037 218.434C313.613 218.434 314.057 218.326 314.369 218.11C314.693 217.882 314.855 217.594 314.855 217.246C314.855 216.874 314.675 216.598 314.315 216.418C313.967 216.238 313.409 216.04 312.641 215.824C311.897 215.62 311.291 215.422 310.823 215.23C310.355 215.038 309.947 214.744 309.599 214.348C309.263 213.952 309.095 213.43 309.095 212.782C309.095 212.254 309.251 211.774 309.563 211.342C309.875 210.898 310.319 210.55 310.895 210.298C311.483 210.046 312.155 209.92 312.911 209.92C314.039 209.92 314.945 210.208 315.629 210.784C316.325 211.348 316.697 212.122 316.745 213.106H314.693C314.657 212.662 314.477 212.308 314.153 212.044C313.829 211.78 313.391 211.648 312.839 211.648C312.299 211.648 311.885 211.75 311.597 211.954C311.309 212.158 311.165 212.428 311.165 212.764C311.165 213.028 311.261 213.25 311.453 213.43C311.645 213.61 311.879 213.754 312.155 213.862C312.431 213.958 312.839 214.084 313.379 214.24C314.099 214.432 314.687 214.63 315.143 214.834C315.611 215.026 316.013 215.314 316.349 215.698C316.685 216.082 316.859 216.592 316.871 217.228C316.871 217.792 316.715 218.296 316.403 218.74C316.091 219.184 315.647 219.532 315.071 219.784C314.507 220.036 313.841 220.162 313.073 220.162Z" fill="#1E1E1E"/>
</svg>
