<svg width="168" height="51" viewBox="0 0 168 51" fill="none" xmlns="http://www.w3.org/2000/svg">
<rect width="168" height="51" rx="8" fill="#C1DCDC"/>
<path d="M29.472 32.126C28.632 32.126 27.876 31.982 27.204 31.694C26.532 31.394 26.004 30.974 25.62 30.434C25.236 29.894 25.044 29.264 25.044 28.544H27.24C27.288 29.084 27.498 29.528 27.87 29.876C28.254 30.224 28.788 30.398 29.472 30.398C30.18 30.398 30.732 30.23 31.128 29.894C31.524 29.546 31.722 29.102 31.722 28.562C31.722 28.142 31.596 27.8 31.344 27.536C31.104 27.272 30.798 27.068 30.426 26.924C30.066 26.78 29.562 26.624 28.914 26.456C28.098 26.24 27.432 26.024 26.916 25.808C26.412 25.58 25.98 25.232 25.62 24.764C25.26 24.296 25.08 23.672 25.08 22.892C25.08 22.172 25.26 21.542 25.62 21.002C25.98 20.462 26.484 20.048 27.132 19.76C27.78 19.472 28.53 19.328 29.382 19.328C30.594 19.328 31.584 19.634 32.352 20.246C33.132 20.846 33.564 21.674 33.648 22.73H31.38C31.344 22.274 31.128 21.884 30.732 21.56C30.336 21.236 29.814 21.074 29.166 21.074C28.578 21.074 28.098 21.224 27.726 21.524C27.354 21.824 27.168 22.256 27.168 22.82C27.168 23.204 27.282 23.522 27.51 23.774C27.75 24.014 28.05 24.206 28.41 24.35C28.77 24.494 29.262 24.65 29.886 24.818C30.714 25.046 31.386 25.274 31.902 25.502C32.43 25.73 32.874 26.084 33.234 26.564C33.606 27.032 33.792 27.662 33.792 28.454C33.792 29.09 33.618 29.69 33.27 30.254C32.934 30.818 32.436 31.274 31.776 31.622C31.128 31.958 30.36 32.126 29.472 32.126ZM45.3033 26.798C45.3033 27.17 45.2793 27.506 45.2313 27.806H37.6533C37.7133 28.598 38.0073 29.234 38.5353 29.714C39.0633 30.194 39.7113 30.434 40.4793 30.434C41.5833 30.434 42.3633 29.972 42.8193 29.048H45.0333C44.7333 29.96 44.1873 30.71 43.3953 31.298C42.6153 31.874 41.6433 32.162 40.4793 32.162C39.5313 32.162 38.6793 31.952 37.9233 31.532C37.1793 31.1 36.5913 30.5 36.1593 29.732C35.7393 28.952 35.5293 28.052 35.5293 27.032C35.5293 26.012 35.7333 25.118 36.1413 24.35C36.5613 23.57 37.1433 22.97 37.8873 22.55C38.6433 22.13 39.5073 21.92 40.4793 21.92C41.4153 21.92 42.2493 22.124 42.9813 22.532C43.7133 22.94 44.2833 23.516 44.6913 24.26C45.0993 24.992 45.3033 25.838 45.3033 26.798ZM43.1613 26.15C43.1493 25.394 42.8793 24.788 42.3513 24.332C41.8233 23.876 41.1693 23.648 40.3893 23.648C39.6813 23.648 39.0753 23.876 38.5713 24.332C38.0673 24.776 37.7673 25.382 37.6713 26.15H43.1613ZM56.4127 26.798C56.4127 27.17 56.3887 27.506 56.3407 27.806H48.7627C48.8227 28.598 49.1167 29.234 49.6447 29.714C50.1727 30.194 50.8207 30.434 51.5887 30.434C52.6927 30.434 53.4727 29.972 53.9287 29.048H56.1427C55.8427 29.96 55.2967 30.71 54.5047 31.298C53.7247 31.874 52.7527 32.162 51.5887 32.162C50.6407 32.162 49.7887 31.952 49.0327 31.532C48.2887 31.1 47.7007 30.5 47.2687 29.732C46.8487 28.952 46.6387 28.052 46.6387 27.032C46.6387 26.012 46.8427 25.118 47.2507 24.35C47.6707 23.57 48.2527 22.97 48.9967 22.55C49.7527 22.13 50.6167 21.92 51.5887 21.92C52.5247 21.92 53.3587 22.124 54.0907 22.532C54.8227 22.94 55.3927 23.516 55.8007 24.26C56.2087 24.992 56.4127 25.838 56.4127 26.798ZM54.2707 26.15C54.2587 25.394 53.9887 24.788 53.4607 24.332C52.9327 23.876 52.2787 23.648 51.4987 23.648C50.7907 23.648 50.1847 23.876 49.6807 24.332C49.1767 24.776 48.8767 25.382 48.7807 26.15H54.2707ZM75.1138 21.92C75.8938 21.92 76.5898 22.082 77.2018 22.406C77.8258 22.73 78.3118 23.21 78.6598 23.846C79.0198 24.482 79.1998 25.25 79.1998 26.15V32H77.1658V26.456C77.1658 25.568 76.9438 24.89 76.4998 24.422C76.0558 23.942 75.4498 23.702 74.6818 23.702C73.9138 23.702 73.3018 23.942 72.8458 24.422C72.4018 24.89 72.1798 25.568 72.1798 26.456V32H70.1458V26.456C70.1458 25.568 69.9238 24.89 69.4798 24.422C69.0358 23.942 68.4298 23.702 67.6618 23.702C66.8938 23.702 66.2818 23.942 65.8258 24.422C65.3818 24.89 65.1598 25.568 65.1598 26.456V32H63.1078V22.082H65.1598V23.216C65.4958 22.808 65.9218 22.49 66.4378 22.262C66.9538 22.034 67.5058 21.92 68.0938 21.92C68.8858 21.92 69.5938 22.088 70.2178 22.424C70.8418 22.76 71.3218 23.246 71.6578 23.882C71.9578 23.282 72.4258 22.808 73.0618 22.46C73.6978 22.1 74.3818 21.92 75.1138 21.92ZM86.1129 32.162C85.1769 32.162 84.3309 31.952 83.5749 31.532C82.8189 31.1 82.2249 30.5 81.7929 29.732C81.3609 28.952 81.1449 28.052 81.1449 27.032C81.1449 26.024 81.3669 25.13 81.8109 24.35C82.2549 23.57 82.8609 22.97 83.6289 22.55C84.3969 22.13 85.2549 21.92 86.2029 21.92C87.1509 21.92 88.0089 22.13 88.7769 22.55C89.5449 22.97 90.1509 23.57 90.5949 24.35C91.0389 25.13 91.2609 26.024 91.2609 27.032C91.2609 28.04 91.0329 28.934 90.5769 29.714C90.1209 30.494 89.4969 31.1 88.7049 31.532C87.9249 31.952 87.0609 32.162 86.1129 32.162ZM86.1129 30.38C86.6409 30.38 87.1329 30.254 87.5889 30.002C88.0569 29.75 88.4349 29.372 88.7229 28.868C89.0109 28.364 89.1549 27.752 89.1549 27.032C89.1549 26.312 89.0169 25.706 88.7409 25.214C88.4649 24.71 88.0989 24.332 87.6429 24.08C87.1869 23.828 86.6949 23.702 86.1669 23.702C85.6389 23.702 85.1469 23.828 84.6909 24.08C84.2469 24.332 83.8929 24.71 83.6289 25.214C83.3649 25.706 83.2329 26.312 83.2329 27.032C83.2329 28.1 83.5029 28.928 84.0429 29.516C84.5949 30.092 85.2849 30.38 86.1129 30.38ZM95.3415 23.522C95.6415 23.018 96.0375 22.628 96.5295 22.352C97.0335 22.064 97.6275 21.92 98.3115 21.92V24.044H97.7895C96.9855 24.044 96.3735 24.248 95.9535 24.656C95.5455 25.064 95.3415 25.772 95.3415 26.78V32H93.2895V22.082H95.3415V23.522ZM109.288 26.798C109.288 27.17 109.264 27.506 109.216 27.806H101.638C101.698 28.598 101.992 29.234 102.52 29.714C103.048 30.194 103.696 30.434 104.464 30.434C105.568 30.434 106.348 29.972 106.804 29.048H109.018C108.718 29.96 108.172 30.71 107.38 31.298C106.6 31.874 105.628 32.162 104.464 32.162C103.516 32.162 102.664 31.952 101.908 31.532C101.164 31.1 100.576 30.5 100.144 29.732C99.7237 28.952 99.5137 28.052 99.5137 27.032C99.5137 26.012 99.7177 25.118 100.126 24.35C100.546 23.57 101.128 22.97 101.872 22.55C102.628 22.13 103.492 21.92 104.464 21.92C105.4 21.92 106.234 22.124 106.966 22.532C107.698 22.94 108.268 23.516 108.676 24.26C109.084 24.992 109.288 25.838 109.288 26.798ZM107.146 26.15C107.134 25.394 106.864 24.788 106.336 24.332C105.808 23.876 105.154 23.648 104.374 23.648C103.666 23.648 103.06 23.876 102.556 24.332C102.052 24.776 101.752 25.382 101.656 26.15H107.146Z" fill="#1E1E1E"/>
<path fill-rule="evenodd" clip-rule="evenodd" d="M121.5 25.5001C121.5 25.3343 121.579 25.1753 121.72 25.0581C121.86 24.9409 122.051 24.8751 122.25 24.8751H139.94L135.219 20.9426C135.078 20.8252 134.999 20.666 134.999 20.5001C134.999 20.3341 135.078 20.1749 135.219 20.0576C135.36 19.9402 135.551 19.8743 135.75 19.8743C135.949 19.8743 136.14 19.9402 136.281 20.0576L142.281 25.0576C142.351 25.1156 142.406 25.1846 142.444 25.2605C142.482 25.3364 142.501 25.4178 142.501 25.5001C142.501 25.5823 142.482 25.6637 142.444 25.7396C142.406 25.8155 142.351 25.8845 142.281 25.9426L136.281 30.9426C136.14 31.0599 135.949 31.1258 135.75 31.1258C135.551 31.1258 135.36 31.0599 135.219 30.9426C135.078 30.8252 134.999 30.666 134.999 30.5001C134.999 30.3341 135.078 30.1749 135.219 30.0576L139.94 26.1251H122.25C122.051 26.1251 121.86 26.0592 121.72 25.942C121.579 25.8248 121.5 25.6658 121.5 25.5001Z" fill="#1E1E1E"/>
</svg>
