<svg width="256" height="189" viewBox="0 0 256 189" fill="none" xmlns="http://www.w3.org/2000/svg">
<path d="M15.584 23.48C16.8853 23.7573 17.9307 24.408 18.72 25.432C19.5093 26.4347 19.904 27.5867 19.904 28.888C19.904 30.7653 19.2427 32.2587 17.92 33.368C16.6187 34.456 14.7947 35 12.448 35H1.984V12.536H12.096C14.3787 12.536 16.16 13.0587 17.44 14.104C18.7413 15.1493 19.392 16.568 19.392 18.36C19.392 19.6827 19.04 20.7813 18.336 21.656C17.6533 22.5307 16.736 23.1387 15.584 23.48ZM7.456 21.624H11.04C11.936 21.624 12.6187 21.432 13.088 21.048C13.5787 20.6427 13.824 20.056 13.824 19.288C13.824 18.52 13.5787 17.9333 13.088 17.528C12.6187 17.1227 11.936 16.92 11.04 16.92H7.456V21.624ZM11.488 30.584C12.4053 30.584 13.1093 30.3813 13.6 29.976C14.112 29.5493 14.368 28.9413 14.368 28.152C14.368 27.3627 14.1013 26.744 13.568 26.296C13.056 25.848 12.3413 25.624 11.424 25.624H7.456V30.584H11.488ZM39.9097 25.784C39.9097 26.296 39.8778 26.8293 39.8138 27.384H27.4298C27.5151 28.4933 27.8671 29.3467 28.4858 29.944C29.1258 30.52 29.9044 30.808 30.8218 30.808C32.1871 30.808 33.1364 30.232 33.6698 29.08H39.4938C39.1951 30.2533 38.6511 31.3093 37.8618 32.248C37.0938 33.1867 36.1231 33.9227 34.9498 34.456C33.7764 34.9893 32.4644 35.256 31.0138 35.256C29.2644 35.256 27.7071 34.8827 26.3418 34.136C24.9764 33.3893 23.9098 32.3227 23.1418 30.936C22.3738 29.5493 21.9898 27.928 21.9898 26.072C21.9898 24.216 22.3631 22.5947 23.1098 21.208C23.8778 19.8213 24.9444 18.7547 26.3098 18.008C27.6751 17.2613 29.2431 16.888 31.0138 16.888C32.7418 16.888 34.2778 17.2507 35.6218 17.976C36.9658 18.7013 38.0111 19.736 38.7578 21.08C39.5258 22.424 39.9097 23.992 39.9097 25.784ZM34.3098 24.344C34.3098 23.4053 33.9898 22.6587 33.3498 22.104C32.7098 21.5493 31.9098 21.272 30.9498 21.272C30.0324 21.272 29.2538 21.5387 28.6138 22.072C27.9951 22.6053 27.6111 23.3627 27.4618 24.344H34.3098ZM50.0605 35.256C48.5032 35.256 47.1165 34.9893 45.9005 34.456C44.6845 33.9227 43.7245 33.1973 43.0205 32.28C42.3165 31.3413 41.9218 30.296 41.8365 29.144H47.2445C47.3085 29.7627 47.5965 30.264 48.1085 30.648C48.6205 31.032 49.2498 31.224 49.9965 31.224C50.6792 31.224 51.2018 31.096 51.5645 30.84C51.9485 30.5627 52.1405 30.2107 52.1405 29.784C52.1405 29.272 51.8738 28.8987 51.3405 28.664C50.8072 28.408 49.9432 28.1307 48.7485 27.832C47.4685 27.5333 46.4018 27.224 45.5485 26.904C44.6952 26.5627 43.9592 26.04 43.3405 25.336C42.7218 24.6107 42.4125 23.64 42.4125 22.424C42.4125 21.4 42.6898 20.472 43.2445 19.64C43.8205 18.7867 44.6525 18.1147 45.7405 17.624C46.8498 17.1333 48.1618 16.888 49.6765 16.888C51.9165 16.888 53.6765 17.4427 54.9565 18.552C56.2578 19.6613 57.0045 21.1333 57.1965 22.968H52.1405C52.0552 22.3493 51.7778 21.8587 51.3085 21.496C50.8605 21.1333 50.2632 20.952 49.5165 20.952C48.8765 20.952 48.3858 21.08 48.0445 21.336C47.7032 21.5707 47.5325 21.9013 47.5325 22.328C47.5325 22.84 47.7992 23.224 48.3325 23.48C48.8872 23.736 49.7405 23.992 50.8925 24.248C52.2152 24.5893 53.2925 24.9307 54.1245 25.272C54.9565 25.592 55.6818 26.1253 56.3005 26.872C56.9405 27.5973 57.2712 28.5787 57.2925 29.816C57.2925 30.8613 56.9938 31.8 56.3965 32.632C55.8205 33.4427 54.9778 34.0827 53.8685 34.552C52.7805 35.0213 51.5112 35.256 50.0605 35.256ZM70.5923 30.36V35H67.8083C65.8243 35 64.2776 34.52 63.1683 33.56C62.0589 32.5787 61.5043 30.9893 61.5043 28.792V21.688H59.3283V17.144H61.5043V12.792H66.9763V17.144H70.5603V21.688H66.9763V28.856C66.9763 29.3893 67.1043 29.7733 67.3603 30.008C67.6163 30.2427 68.0429 30.36 68.6403 30.36H70.5923ZM88.5495 35.224C86.9068 35.224 85.4348 34.9573 84.1335 34.424C82.8322 33.8907 81.7868 33.1013 80.9975 32.056C80.2295 31.0107 79.8242 29.752 79.7815 28.28H85.6055C85.6908 29.112 85.9788 29.752 86.4695 30.2C86.9602 30.6267 87.6002 30.84 88.3895 30.84C89.2002 30.84 89.8402 30.6587 90.3095 30.296C90.7788 29.912 91.0135 29.3893 91.0135 28.728C91.0135 28.1733 90.8215 27.7147 90.4375 27.352C90.0748 26.9893 89.6162 26.6907 89.0615 26.456C88.5282 26.2213 87.7602 25.9547 86.7575 25.656C85.3068 25.208 84.1228 24.76 83.2055 24.312C82.2882 23.864 81.4988 23.2027 80.8375 22.328C80.1762 21.4533 79.8455 20.312 79.8455 18.904C79.8455 16.8133 80.6028 15.1813 82.1175 14.008C83.6322 12.8133 85.6055 12.216 88.0375 12.216C90.5122 12.216 92.5068 12.8133 94.0215 14.008C95.5362 15.1813 96.3468 16.824 96.4535 18.936H90.5335C90.4908 18.2107 90.2242 17.6453 89.7335 17.24C89.2428 16.8133 88.6135 16.6 87.8455 16.6C87.1842 16.6 86.6508 16.7813 86.2455 17.144C85.8402 17.4853 85.6375 17.9867 85.6375 18.648C85.6375 19.3733 85.9788 19.9387 86.6615 20.344C87.3442 20.7493 88.4108 21.1867 89.8615 21.656C91.3122 22.1467 92.4855 22.616 93.3815 23.064C94.2988 23.512 95.0882 24.1627 95.7495 25.016C96.4108 25.8693 96.7415 26.968 96.7415 28.312C96.7415 29.592 96.4108 30.7547 95.7495 31.8C95.1095 32.8453 94.1708 33.6773 92.9335 34.296C91.6962 34.9147 90.2348 35.224 88.5495 35.224ZM116.941 25.784C116.941 26.296 116.909 26.8293 116.845 27.384H104.461C104.546 28.4933 104.898 29.3467 105.517 29.944C106.157 30.52 106.936 30.808 107.853 30.808C109.218 30.808 110.168 30.232 110.701 29.08H116.525C116.226 30.2533 115.682 31.3093 114.893 32.248C114.125 33.1867 113.154 33.9227 111.981 34.456C110.808 34.9893 109.496 35.256 108.045 35.256C106.296 35.256 104.738 34.8827 103.373 34.136C102.008 33.3893 100.941 32.3227 100.173 30.936C99.405 29.5493 99.021 27.928 99.021 26.072C99.021 24.216 99.3943 22.5947 100.141 21.208C100.909 19.8213 101.976 18.7547 103.341 18.008C104.706 17.2613 106.274 16.888 108.045 16.888C109.773 16.888 111.309 17.2507 112.653 17.976C113.997 18.7013 115.042 19.736 115.789 21.08C116.557 22.424 116.941 23.992 116.941 25.784ZM111.341 24.344C111.341 23.4053 111.021 22.6587 110.381 22.104C109.741 21.5493 108.941 21.272 107.981 21.272C107.064 21.272 106.285 21.5387 105.645 22.072C105.026 22.6053 104.642 23.3627 104.493 24.344H111.341ZM125.3 11.32V35H119.828V11.32H125.3ZM134.737 11.32V35H129.265V11.32H134.737ZM141.455 15.288C140.495 15.288 139.705 15.0107 139.087 14.456C138.489 13.88 138.191 13.176 138.191 12.344C138.191 11.4907 138.489 10.7867 139.087 10.232C139.705 9.656 140.495 9.368 141.455 9.368C142.393 9.368 143.161 9.656 143.759 10.232C144.377 10.7867 144.687 11.4907 144.687 12.344C144.687 13.176 144.377 13.88 143.759 14.456C143.161 15.0107 142.393 15.288 141.455 15.288ZM144.175 17.144V35H138.703V17.144H144.175ZM159.02 16.952C161.111 16.952 162.775 17.6347 164.012 19C165.271 20.344 165.9 22.2 165.9 24.568V35H160.46V25.304C160.46 24.1093 160.151 23.1813 159.532 22.52C158.914 21.8587 158.082 21.528 157.036 21.528C155.991 21.528 155.159 21.8587 154.54 22.52C153.922 23.1813 153.612 24.1093 153.612 25.304V35H148.14V17.144H153.612V19.512C154.167 18.7227 154.914 18.104 155.852 17.656C156.791 17.1867 157.847 16.952 159.02 16.952ZM176.487 16.888C177.745 16.888 178.844 17.144 179.783 17.656C180.743 18.168 181.479 18.84 181.991 19.672V17.144H187.463V34.968C187.463 36.6107 187.132 38.0933 186.471 39.416C185.831 40.76 184.839 41.8267 183.495 42.616C182.172 43.4053 180.519 43.8 178.535 43.8C175.889 43.8 173.745 43.1707 172.103 41.912C170.46 40.6747 169.521 38.9893 169.287 36.856H174.695C174.865 37.5387 175.271 38.072 175.911 38.456C176.551 38.8613 177.34 39.064 178.279 39.064C179.409 39.064 180.305 38.7333 180.967 38.072C181.649 37.432 181.991 36.3973 181.991 34.968V32.44C181.457 33.272 180.721 33.9547 179.783 34.488C178.844 35 177.745 35.256 176.487 35.256C175.015 35.256 173.681 34.8827 172.487 34.136C171.292 33.368 170.343 32.2907 169.639 30.904C168.956 29.496 168.615 27.8747 168.615 26.04C168.615 24.2053 168.956 22.5947 169.639 21.208C170.343 19.8213 171.292 18.7547 172.487 18.008C173.681 17.2613 175.015 16.888 176.487 16.888ZM181.991 26.072C181.991 24.7067 181.607 23.6293 180.839 22.84C180.092 22.0507 179.175 21.656 178.087 21.656C176.999 21.656 176.071 22.0507 175.303 22.84C174.556 23.608 174.183 24.6747 174.183 26.04C174.183 27.4053 174.556 28.4933 175.303 29.304C176.071 30.0933 176.999 30.488 178.087 30.488C179.175 30.488 180.092 30.0933 180.839 29.304C181.607 28.5147 181.991 27.4373 181.991 26.072ZM19.104 67.768C19.104 69.0693 18.8053 70.264 18.208 71.352C17.6107 72.4187 16.6933 73.2827 15.456 73.944C14.2187 74.6053 12.6827 74.936 10.848 74.936H7.456V83H1.984V60.536H10.848C12.64 60.536 14.1547 60.8453 15.392 61.464C16.6293 62.0827 17.5573 62.936 18.176 64.024C18.7947 65.112 19.104 66.36 19.104 67.768ZM10.432 70.584C11.4773 70.584 12.256 70.3387 12.768 69.848C13.28 69.3573 13.536 68.664 13.536 67.768C13.536 66.872 13.28 66.1787 12.768 65.688C12.256 65.1973 11.4773 64.952 10.432 64.952H7.456V70.584H10.432ZM27.4248 59.32V83H21.9528V59.32H27.4248ZM30.3023 74.04C30.3023 72.2053 30.6436 70.5947 31.3263 69.208C32.0303 67.8213 32.9796 66.7547 34.1743 66.008C35.3689 65.2613 36.7023 64.888 38.1743 64.888C39.4329 64.888 40.5316 65.144 41.4703 65.656C42.4303 66.168 43.1663 66.84 43.6783 67.672V65.144H49.1503V83H43.6783V80.472C43.1449 81.304 42.3983 81.976 41.4383 82.488C40.4996 83 39.4009 83.256 38.1423 83.256C36.6916 83.256 35.3689 82.8827 34.1743 82.136C32.9796 81.368 32.0303 80.2907 31.3263 78.904C30.6436 77.496 30.3023 75.8747 30.3023 74.04ZM43.6783 74.072C43.6783 72.7067 43.2943 71.6293 42.5263 70.84C41.7796 70.0507 40.8623 69.656 39.7743 69.656C38.6863 69.656 37.7583 70.0507 36.9903 70.84C36.2436 71.608 35.8703 72.6747 35.8703 74.04C35.8703 75.4053 36.2436 76.4933 36.9903 77.304C37.7583 78.0933 38.6863 78.488 39.7743 78.488C40.8623 78.488 41.7796 78.0933 42.5263 77.304C43.2943 76.5147 43.6783 75.4373 43.6783 74.072ZM63.989 64.952C66.0797 64.952 67.7437 65.6347 68.981 67C70.2397 68.344 70.869 70.2 70.869 72.568V83H65.429V73.304C65.429 72.1093 65.1197 71.1813 64.501 70.52C63.8823 69.8587 63.0503 69.528 62.005 69.528C60.9597 69.528 60.1277 69.8587 59.509 70.52C58.8903 71.1813 58.581 72.1093 58.581 73.304V83H53.109V65.144H58.581V67.512C59.1357 66.7227 59.8823 66.104 60.821 65.656C61.7597 65.1867 62.8157 64.952 63.989 64.952ZM84.6235 78.36V83H81.8395C79.8555 83 78.3088 82.52 77.1995 81.56C76.0902 80.5787 75.5355 78.9893 75.5355 76.792V69.688H73.3595V65.144H75.5355V60.792H81.0075V65.144H84.5915V69.688H81.0075V76.856C81.0075 77.3893 81.1355 77.7733 81.3915 78.008C81.6475 78.2427 82.0742 78.36 82.6715 78.36H84.6235ZM94.9355 83.256C93.3782 83.256 91.9915 82.9893 90.7755 82.456C89.5595 81.9227 88.5995 81.1973 87.8955 80.28C87.1915 79.3413 86.7968 78.296 86.7115 77.144H92.1195C92.1835 77.7627 92.4715 78.264 92.9835 78.648C93.4955 79.032 94.1248 79.224 94.8715 79.224C95.5542 79.224 96.0768 79.096 96.4395 78.84C96.8235 78.5627 97.0155 78.2107 97.0155 77.784C97.0155 77.272 96.7488 76.8987 96.2155 76.664C95.6822 76.408 94.8182 76.1307 93.6235 75.832C92.3435 75.5333 91.2768 75.224 90.4235 74.904C89.5702 74.5627 88.8342 74.04 88.2155 73.336C87.5968 72.6107 87.2875 71.64 87.2875 70.424C87.2875 69.4 87.5648 68.472 88.1195 67.64C88.6955 66.7867 89.5275 66.1147 90.6155 65.624C91.7248 65.1333 93.0368 64.888 94.5515 64.888C96.7915 64.888 98.5515 65.4427 99.8315 66.552C101.133 67.6613 101.88 69.1333 102.072 70.968H97.0155C96.9302 70.3493 96.6528 69.8587 96.1835 69.496C95.7355 69.1333 95.1382 68.952 94.3915 68.952C93.7515 68.952 93.2608 69.08 92.9195 69.336C92.5782 69.5707 92.4075 69.9013 92.4075 70.328C92.4075 70.84 92.6742 71.224 93.2075 71.48C93.7622 71.736 94.6155 71.992 95.7675 72.248C97.0902 72.5893 98.1675 72.9307 98.9995 73.272C99.8315 73.592 100.557 74.1253 101.176 74.872C101.816 75.5973 102.146 76.5787 102.168 77.816C102.168 78.8613 101.869 79.8 101.272 80.632C100.696 81.4427 99.8528 82.0827 98.7435 82.552C97.6555 83.0213 96.3862 83.256 94.9355 83.256Z" fill="#1E1E1E"/>
<path d="M3.402 117.146V120.818H7.722V122.492H3.402V126.326H8.262V128H1.35V115.472H8.262V117.146H3.402ZM10.1055 122.996C10.1055 122 10.3095 121.118 10.7175 120.35C11.1375 119.582 11.7015 118.988 12.4095 118.568C13.1295 118.136 13.9215 117.92 14.7855 117.92C15.5655 117.92 16.2435 118.076 16.8195 118.388C17.4075 118.688 17.8755 119.066 18.2235 119.522V118.082H20.2935V128H18.2235V126.524C17.8755 126.992 17.4015 127.382 16.8015 127.694C16.2015 128.006 15.5175 128.162 14.7495 128.162C13.8975 128.162 13.1175 127.946 12.4095 127.514C11.7015 127.07 11.1375 126.458 10.7175 125.678C10.3095 124.886 10.1055 123.992 10.1055 122.996ZM18.2235 123.032C18.2235 122.348 18.0795 121.754 17.7915 121.25C17.5155 120.746 17.1495 120.362 16.6935 120.098C16.2375 119.834 15.7455 119.702 15.2175 119.702C14.6895 119.702 14.1975 119.834 13.7415 120.098C13.2855 120.35 12.9135 120.728 12.6255 121.232C12.3495 121.724 12.2115 122.312 12.2115 122.996C12.2115 123.68 12.3495 124.28 12.6255 124.796C12.9135 125.312 13.2855 125.708 13.7415 125.984C14.2095 126.248 14.7015 126.38 15.2175 126.38C15.7455 126.38 16.2375 126.248 16.6935 125.984C17.1495 125.72 17.5155 125.336 17.7915 124.832C18.0795 124.316 18.2235 123.716 18.2235 123.032ZM26.5887 128.162C25.8087 128.162 25.1067 128.024 24.4827 127.748C23.8707 127.46 23.3847 127.076 23.0247 126.596C22.6647 126.104 22.4727 125.558 22.4487 124.958H24.5727C24.6087 125.378 24.8067 125.732 25.1667 126.02C25.5387 126.296 26.0007 126.434 26.5527 126.434C27.1287 126.434 27.5727 126.326 27.8847 126.11C28.2087 125.882 28.3707 125.594 28.3707 125.246C28.3707 124.874 28.1907 124.598 27.8307 124.418C27.4827 124.238 26.9247 124.04 26.1567 123.824C25.4127 123.62 24.8067 123.422 24.3387 123.23C23.8707 123.038 23.4627 122.744 23.1147 122.348C22.7787 121.952 22.6107 121.43 22.6107 120.782C22.6107 120.254 22.7667 119.774 23.0787 119.342C23.3907 118.898 23.8347 118.55 24.4107 118.298C24.9987 118.046 25.6707 117.92 26.4267 117.92C27.5547 117.92 28.4607 118.208 29.1447 118.784C29.8407 119.348 30.2127 120.122 30.2607 121.106H28.2087C28.1727 120.662 27.9927 120.308 27.6687 120.044C27.3447 119.78 26.9067 119.648 26.3547 119.648C25.8147 119.648 25.4007 119.75 25.1127 119.954C24.8247 120.158 24.6807 120.428 24.6807 120.764C24.6807 121.028 24.7767 121.25 24.9687 121.43C25.1607 121.61 25.3947 121.754 25.6707 121.862C25.9467 121.958 26.3547 122.084 26.8947 122.24C27.6147 122.432 28.2027 122.63 28.6587 122.834C29.1267 123.026 29.5287 123.314 29.8647 123.698C30.2007 124.082 30.3747 124.592 30.3867 125.228C30.3867 125.792 30.2307 126.296 29.9187 126.74C29.6067 127.184 29.1627 127.532 28.5867 127.784C28.0227 128.036 27.3567 128.162 26.5887 128.162ZM33.6479 116.768C33.2759 116.768 32.9639 116.642 32.7119 116.39C32.4599 116.138 32.3339 115.826 32.3339 115.454C32.3339 115.082 32.4599 114.77 32.7119 114.518C32.9639 114.266 33.2759 114.14 33.6479 114.14C34.0079 114.14 34.3139 114.266 34.5659 114.518C34.8179 114.77 34.9439 115.082 34.9439 115.454C34.9439 115.826 34.8179 116.138 34.5659 116.39C34.3139 116.642 34.0079 116.768 33.6479 116.768ZM34.6559 118.082V128H32.6039V118.082H34.6559ZM46.44 122.798C46.44 123.17 46.416 123.506 46.368 123.806H38.79C38.85 124.598 39.144 125.234 39.672 125.714C40.2 126.194 40.848 126.434 41.616 126.434C42.72 126.434 43.5 125.972 43.956 125.048H46.17C45.87 125.96 45.324 126.71 44.532 127.298C43.752 127.874 42.78 128.162 41.616 128.162C40.668 128.162 39.816 127.952 39.06 127.532C38.316 127.1 37.728 126.5 37.296 125.732C36.876 124.952 36.666 124.052 36.666 123.032C36.666 122.012 36.87 121.118 37.278 120.35C37.698 119.57 38.28 118.97 39.024 118.55C39.78 118.13 40.644 117.92 41.616 117.92C42.552 117.92 43.386 118.124 44.118 118.532C44.85 118.94 45.42 119.516 45.828 120.26C46.236 120.992 46.44 121.838 46.44 122.798ZM44.298 122.15C44.286 121.394 44.016 120.788 43.488 120.332C42.96 119.876 42.306 119.648 41.526 119.648C40.818 119.648 40.212 119.876 39.708 120.332C39.204 120.776 38.904 121.382 38.808 122.15H44.298ZM52.0594 128.162C51.2794 128.162 50.5774 128.024 49.9534 127.748C49.3414 127.46 48.8554 127.076 48.4954 126.596C48.1354 126.104 47.9434 125.558 47.9194 124.958H50.0434C50.0794 125.378 50.2774 125.732 50.6374 126.02C51.0094 126.296 51.4714 126.434 52.0234 126.434C52.5994 126.434 53.0434 126.326 53.3554 126.11C53.6794 125.882 53.8414 125.594 53.8414 125.246C53.8414 124.874 53.6614 124.598 53.3014 124.418C52.9534 124.238 52.3954 124.04 51.6274 123.824C50.8834 123.62 50.2774 123.422 49.8094 123.23C49.3414 123.038 48.9334 122.744 48.5854 122.348C48.2494 121.952 48.0814 121.43 48.0814 120.782C48.0814 120.254 48.2374 119.774 48.5494 119.342C48.8614 118.898 49.3054 118.55 49.8814 118.298C50.4694 118.046 51.1414 117.92 51.8974 117.92C53.0254 117.92 53.9314 118.208 54.6154 118.784C55.3114 119.348 55.6834 120.122 55.7314 121.106H53.6794C53.6434 120.662 53.4634 120.308 53.1394 120.044C52.8154 119.78 52.3774 119.648 51.8254 119.648C51.2854 119.648 50.8714 119.75 50.5834 119.954C50.2954 120.158 50.1514 120.428 50.1514 120.764C50.1514 121.028 50.2474 121.25 50.4394 121.43C50.6314 121.61 50.8654 121.754 51.1414 121.862C51.4174 121.958 51.8254 122.084 52.3654 122.24C53.0854 122.432 53.6734 122.63 54.1294 122.834C54.5974 123.026 54.9994 123.314 55.3354 123.698C55.6714 124.082 55.8454 124.592 55.8574 125.228C55.8574 125.792 55.7014 126.296 55.3894 126.74C55.0774 127.184 54.6334 127.532 54.0574 127.784C53.4934 128.036 52.8274 128.162 52.0594 128.162ZM60.4686 119.756V125.246C60.4686 125.618 60.5526 125.888 60.7206 126.056C60.9006 126.212 61.2006 126.29 61.6206 126.29H62.8806V128H61.2606C60.3366 128 59.6286 127.784 59.1366 127.352C58.6446 126.92 58.3986 126.218 58.3986 125.246V119.756H57.2286V118.082H58.3986V115.616H60.4686V118.082H62.8806V119.756H60.4686ZM82.7677 118.082L79.6897 128H77.5297L75.5317 120.674L73.5337 128H71.3737L68.2777 118.082H70.3657L72.4357 126.056L74.5417 118.082H76.6837L78.6997 126.02L80.7517 118.082H82.7677ZM83.6172 122.996C83.6172 122 83.8212 121.118 84.2292 120.35C84.6492 119.582 85.2132 118.988 85.9212 118.568C86.6412 118.136 87.4332 117.92 88.2972 117.92C89.0772 117.92 89.7552 118.076 90.3312 118.388C90.9192 118.688 91.3872 119.066 91.7352 119.522V118.082H93.8052V128H91.7352V126.524C91.3872 126.992 90.9132 127.382 90.3132 127.694C89.7132 128.006 89.0292 128.162 88.2612 128.162C87.4092 128.162 86.6292 127.946 85.9212 127.514C85.2132 127.07 84.6492 126.458 84.2292 125.678C83.8212 124.886 83.6172 123.992 83.6172 122.996ZM91.7352 123.032C91.7352 122.348 91.5912 121.754 91.3032 121.25C91.0272 120.746 90.6612 120.362 90.2052 120.098C89.7492 119.834 89.2572 119.702 88.7292 119.702C88.2012 119.702 87.7092 119.834 87.2532 120.098C86.7972 120.35 86.4252 120.728 86.1372 121.232C85.8612 121.724 85.7232 122.312 85.7232 122.996C85.7232 123.68 85.8612 124.28 86.1372 124.796C86.4252 125.312 86.7972 125.708 87.2532 125.984C87.7212 126.248 88.2132 126.38 88.7292 126.38C89.2572 126.38 89.7492 126.248 90.2052 125.984C90.6612 125.72 91.0272 125.336 91.3032 124.832C91.5912 124.316 91.7352 123.716 91.7352 123.032ZM105.428 118.082L99.3444 132.662H97.2204L99.2364 127.838L95.3304 118.082H97.6164L100.406 125.642L103.304 118.082H105.428ZM114.047 119.756V125.246C114.047 125.618 114.131 125.888 114.299 126.056C114.479 126.212 114.779 126.29 115.199 126.29H116.459V128H114.839C113.915 128 113.207 127.784 112.715 127.352C112.223 126.92 111.977 126.218 111.977 125.246V119.756H110.807V118.082H111.977V115.616H114.047V118.082H116.459V119.756H114.047ZM122.652 128.162C121.716 128.162 120.87 127.952 120.114 127.532C119.358 127.1 118.764 126.5 118.332 125.732C117.9 124.952 117.684 124.052 117.684 123.032C117.684 122.024 117.906 121.13 118.35 120.35C118.794 119.57 119.4 118.97 120.168 118.55C120.936 118.13 121.794 117.92 122.742 117.92C123.69 117.92 124.548 118.13 125.316 118.55C126.084 118.97 126.69 119.57 127.134 120.35C127.578 121.13 127.8 122.024 127.8 123.032C127.8 124.04 127.572 124.934 127.116 125.714C126.66 126.494 126.036 127.1 125.244 127.532C124.464 127.952 123.6 128.162 122.652 128.162ZM122.652 126.38C123.18 126.38 123.672 126.254 124.128 126.002C124.596 125.75 124.974 125.372 125.262 124.868C125.55 124.364 125.694 123.752 125.694 123.032C125.694 122.312 125.556 121.706 125.28 121.214C125.004 120.71 124.638 120.332 124.182 120.08C123.726 119.828 123.234 119.702 122.706 119.702C122.178 119.702 121.686 119.828 121.23 120.08C120.786 120.332 120.432 120.71 120.168 121.214C119.904 121.706 119.772 122.312 119.772 123.032C119.772 124.1 120.042 124.928 120.582 125.516C121.134 126.092 121.824 126.38 122.652 126.38ZM6.48 144.92C7.236 144.92 7.908 145.082 8.496 145.406C9.096 145.73 9.564 146.21 9.9 146.846C10.248 147.482 10.422 148.25 10.422 149.15V155H8.388V149.456C8.388 148.568 8.166 147.89 7.722 147.422C7.278 146.942 6.672 146.702 5.904 146.702C5.136 146.702 4.524 146.942 4.068 147.422C3.624 147.89 3.402 148.568 3.402 149.456V155H1.35V141.68H3.402V146.234C3.75 145.814 4.188 145.49 4.716 145.262C5.256 145.034 5.844 144.92 6.48 144.92ZM22.1295 149.798C22.1295 150.17 22.1055 150.506 22.0575 150.806H14.4795C14.5395 151.598 14.8335 152.234 15.3615 152.714C15.8895 153.194 16.5375 153.434 17.3055 153.434C18.4095 153.434 19.1895 152.972 19.6455 152.048H21.8595C21.5595 152.96 21.0135 153.71 20.2215 154.298C19.4415 154.874 18.4695 155.162 17.3055 155.162C16.3575 155.162 15.5055 154.952 14.7495 154.532C14.0055 154.1 13.4175 153.5 12.9855 152.732C12.5655 151.952 12.3555 151.052 12.3555 150.032C12.3555 149.012 12.5595 148.118 12.9675 147.35C13.3875 146.57 13.9695 145.97 14.7135 145.55C15.4695 145.13 16.3335 144.92 17.3055 144.92C18.2415 144.92 19.0755 145.124 19.8075 145.532C20.5395 145.94 21.1095 146.516 21.5175 147.26C21.9255 147.992 22.1295 148.838 22.1295 149.798ZM19.9875 149.15C19.9755 148.394 19.7055 147.788 19.1775 147.332C18.6495 146.876 17.9955 146.648 17.2155 146.648C16.5075 146.648 15.9015 146.876 15.3975 147.332C14.8935 147.776 14.5935 148.382 14.4975 149.15H19.9875ZM23.4648 149.996C23.4648 149 23.6688 148.118 24.0768 147.35C24.4968 146.582 25.0608 145.988 25.7688 145.568C26.4888 145.136 27.2808 144.92 28.1448 144.92C28.9248 144.92 29.6028 145.076 30.1788 145.388C30.7668 145.688 31.2348 146.066 31.5828 146.522V145.082H33.6528V155H31.5828V153.524C31.2348 153.992 30.7608 154.382 30.1608 154.694C29.5608 155.006 28.8768 155.162 28.1088 155.162C27.2568 155.162 26.4768 154.946 25.7688 154.514C25.0608 154.07 24.4968 153.458 24.0768 152.678C23.6688 151.886 23.4648 150.992 23.4648 149.996ZM31.5828 150.032C31.5828 149.348 31.4388 148.754 31.1508 148.25C30.8748 147.746 30.5088 147.362 30.0528 147.098C29.5968 146.834 29.1048 146.702 28.5768 146.702C28.0488 146.702 27.5568 146.834 27.1008 147.098C26.6448 147.35 26.2728 147.728 25.9848 148.232C25.7088 148.724 25.5708 149.312 25.5708 149.996C25.5708 150.68 25.7088 151.28 25.9848 151.796C26.2728 152.312 26.6448 152.708 27.1008 152.984C27.5688 153.248 28.0608 153.38 28.5768 153.38C29.1048 153.38 29.5968 153.248 30.0528 152.984C30.5088 152.72 30.8748 152.336 31.1508 151.832C31.4388 151.316 31.5828 150.716 31.5828 150.032ZM38.4 141.68V155H36.348V141.68H38.4ZM43.4881 146.756V152.246C43.4881 152.618 43.5721 152.888 43.7401 153.056C43.9201 153.212 44.2201 153.29 44.6401 153.29H45.9001V155H44.2801C43.3561 155 42.6481 154.784 42.1561 154.352C41.6641 153.92 41.4181 153.218 41.4181 152.246V146.756H40.2481V145.082H41.4181V142.616H43.4881V145.082H45.9001V146.756H43.4881ZM52.9214 144.92C53.6774 144.92 54.3494 145.082 54.9374 145.406C55.5374 145.73 56.0054 146.21 56.3414 146.846C56.6894 147.482 56.8634 148.25 56.8634 149.15V155H54.8294V149.456C54.8294 148.568 54.6074 147.89 54.1634 147.422C53.7194 146.942 53.1134 146.702 52.3454 146.702C51.5774 146.702 50.9654 146.942 50.5094 147.422C50.0654 147.89 49.8434 148.568 49.8434 149.456V155H47.7914V141.68H49.8434V146.234C50.1914 145.814 50.6294 145.49 51.1574 145.262C51.6974 145.034 52.2854 144.92 52.9214 144.92ZM68.4089 145.082L62.3249 159.662H60.2009L62.2169 154.838L58.3109 145.082H60.5969L63.3869 152.642L66.2849 145.082H68.4089ZM76.6852 141.68V155H74.6332V141.68H76.6852ZM80.4233 143.768C80.0513 143.768 79.7393 143.642 79.4873 143.39C79.2353 143.138 79.1093 142.826 79.1093 142.454C79.1093 142.082 79.2353 141.77 79.4873 141.518C79.7393 141.266 80.0513 141.14 80.4233 141.14C80.7833 141.14 81.0893 141.266 81.3413 141.518C81.5933 141.77 81.7193 142.082 81.7193 142.454C81.7193 142.826 81.5933 143.138 81.3413 143.39C81.0893 143.642 80.7833 143.768 80.4233 143.768ZM81.4313 145.082V155H79.3793V145.082H81.4313ZM88.2834 146.756H86.4474V155H84.3774V146.756H83.2074V145.082H84.3774V144.38C84.3774 143.24 84.6774 142.412 85.2774 141.896C85.8894 141.368 86.8434 141.104 88.1394 141.104V142.814C87.5154 142.814 87.0774 142.934 86.8254 143.174C86.5734 143.402 86.4474 143.804 86.4474 144.38V145.082H88.2834V146.756ZM99.192 149.798C99.192 150.17 99.168 150.506 99.12 150.806H91.542C91.602 151.598 91.896 152.234 92.424 152.714C92.952 153.194 93.6 153.434 94.368 153.434C95.472 153.434 96.252 152.972 96.708 152.048H98.922C98.622 152.96 98.076 153.71 97.284 154.298C96.504 154.874 95.532 155.162 94.368 155.162C93.42 155.162 92.568 154.952 91.812 154.532C91.068 154.1 90.48 153.5 90.048 152.732C89.628 151.952 89.418 151.052 89.418 150.032C89.418 149.012 89.622 148.118 90.03 147.35C90.45 146.57 91.032 145.97 91.776 145.55C92.532 145.13 93.396 144.92 94.368 144.92C95.304 144.92 96.138 145.124 96.87 145.532C97.602 145.94 98.172 146.516 98.58 147.26C98.988 147.992 99.192 148.838 99.192 149.798ZM97.05 149.15C97.038 148.394 96.768 147.788 96.24 147.332C95.712 146.876 95.058 146.648 94.278 146.648C93.57 146.648 92.964 146.876 92.46 147.332C91.956 147.776 91.656 148.382 91.56 149.15H97.05ZM107.939 146.558C108.287 146.078 108.761 145.688 109.361 145.388C109.973 145.076 110.651 144.92 111.395 144.92C112.271 144.92 113.063 145.13 113.771 145.55C114.479 145.97 115.037 146.57 115.445 147.35C115.853 148.118 116.057 149 116.057 149.996C116.057 150.992 115.853 151.886 115.445 152.678C115.037 153.458 114.473 154.07 113.753 154.514C113.045 154.946 112.259 155.162 111.395 155.162C110.627 155.162 109.943 155.012 109.343 154.712C108.755 154.412 108.287 154.028 107.939 153.56V155H105.887V141.68H107.939V146.558ZM113.969 149.996C113.969 149.312 113.825 148.724 113.537 148.232C113.261 147.728 112.889 147.35 112.421 147.098C111.965 146.834 111.473 146.702 110.945 146.702C110.429 146.702 109.937 146.834 109.469 147.098C109.013 147.362 108.641 147.746 108.353 148.25C108.077 148.754 107.939 149.348 107.939 150.032C107.939 150.716 108.077 151.316 108.353 151.832C108.641 152.336 109.013 152.72 109.469 152.984C109.937 153.248 110.429 153.38 110.945 153.38C111.473 153.38 111.965 153.248 112.421 152.984C112.889 152.708 113.261 152.312 113.537 151.796C113.825 151.28 113.969 150.68 113.969 149.996ZM127.014 145.082L120.93 159.662H118.806L120.822 154.838L116.916 145.082H119.202L121.992 152.642L124.89 145.082H127.014ZM135.291 146.558C135.639 146.078 136.113 145.688 136.713 145.388C137.325 145.076 138.003 144.92 138.747 144.92C139.623 144.92 140.415 145.13 141.123 145.55C141.831 145.97 142.389 146.57 142.797 147.35C143.205 148.118 143.409 149 143.409 149.996C143.409 150.992 143.205 151.886 142.797 152.678C142.389 153.458 141.825 154.07 141.105 154.514C140.397 154.946 139.611 155.162 138.747 155.162C137.979 155.162 137.295 155.012 136.695 154.712C136.107 154.412 135.639 154.028 135.291 153.56V155H133.239V141.68H135.291V146.558ZM141.321 149.996C141.321 149.312 141.177 148.724 140.889 148.232C140.613 147.728 140.241 147.35 139.773 147.098C139.317 146.834 138.825 146.702 138.297 146.702C137.781 146.702 137.289 146.834 136.821 147.098C136.365 147.362 135.993 147.746 135.705 148.25C135.429 148.754 135.291 149.348 135.291 150.032C135.291 150.716 135.429 151.316 135.705 151.832C135.993 152.336 136.365 152.72 136.821 152.984C137.289 153.248 137.781 153.38 138.297 153.38C138.825 153.38 139.317 153.248 139.773 152.984C140.241 152.708 140.613 152.312 140.889 151.796C141.177 151.28 141.321 150.68 141.321 149.996ZM154.42 145.082V155H152.368V153.83C152.044 154.238 151.618 154.562 151.09 154.802C150.574 155.03 150.022 155.144 149.434 155.144C148.654 155.144 147.952 154.982 147.328 154.658C146.716 154.334 146.23 153.854 145.87 153.218C145.522 152.582 145.348 151.814 145.348 150.914V145.082H147.382V150.608C147.382 151.496 147.604 152.18 148.048 152.66C148.492 153.128 149.098 153.362 149.866 153.362C150.634 153.362 151.24 153.128 151.684 152.66C152.14 152.18 152.368 151.496 152.368 150.608V145.082H154.42ZM166.055 145.082L159.971 159.662H157.847L159.863 154.838L155.957 145.082H158.243L161.033 152.642L163.931 145.082H166.055ZM168.648 143.768C168.276 143.768 167.964 143.642 167.712 143.39C167.46 143.138 167.334 142.826 167.334 142.454C167.334 142.082 167.46 141.77 167.712 141.518C167.964 141.266 168.276 141.14 168.648 141.14C169.008 141.14 169.314 141.266 169.566 141.518C169.818 141.77 169.944 142.082 169.944 142.454C169.944 142.826 169.818 143.138 169.566 143.39C169.314 143.642 169.008 143.768 168.648 143.768ZM169.656 145.082V155H167.604V145.082H169.656ZM177.354 144.92C178.134 144.92 178.83 145.082 179.442 145.406C180.066 145.73 180.552 146.21 180.9 146.846C181.248 147.482 181.422 148.25 181.422 149.15V155H179.388V149.456C179.388 148.568 179.166 147.89 178.722 147.422C178.278 146.942 177.672 146.702 176.904 146.702C176.136 146.702 175.524 146.942 175.068 147.422C174.624 147.89 174.402 148.568 174.402 149.456V155H172.35V145.082H174.402V146.216C174.738 145.808 175.164 145.49 175.68 145.262C176.208 145.034 176.766 144.92 177.354 144.92ZM188.035 144.92C188.803 144.92 189.481 145.076 190.069 145.388C190.669 145.688 191.137 146.066 191.473 146.522V145.082H193.543V155.162C193.543 156.074 193.351 156.884 192.967 157.592C192.583 158.312 192.025 158.876 191.293 159.284C190.573 159.692 189.709 159.896 188.701 159.896C187.357 159.896 186.241 159.578 185.353 158.942C184.465 158.318 183.961 157.466 183.841 156.386H185.875C186.031 156.902 186.361 157.316 186.865 157.628C187.381 157.952 187.993 158.114 188.701 158.114C189.529 158.114 190.195 157.862 190.699 157.358C191.215 156.854 191.473 156.122 191.473 155.162V153.506C191.125 153.974 190.651 154.37 190.051 154.694C189.463 155.006 188.791 155.162 188.035 155.162C187.171 155.162 186.379 154.946 185.659 154.514C184.951 154.07 184.387 153.458 183.967 152.678C183.559 151.886 183.355 150.992 183.355 149.996C183.355 149 183.559 148.118 183.967 147.35C184.387 146.582 184.951 145.988 185.659 145.568C186.379 145.136 187.171 144.92 188.035 144.92ZM191.473 150.032C191.473 149.348 191.329 148.754 191.041 148.25C190.765 147.746 190.399 147.362 189.943 147.098C189.487 146.834 188.995 146.702 188.467 146.702C187.939 146.702 187.447 146.834 186.991 147.098C186.535 147.35 186.163 147.728 185.875 148.232C185.599 148.724 185.461 149.312 185.461 149.996C185.461 150.68 185.599 151.28 185.875 151.796C186.163 152.312 186.535 152.708 186.991 152.984C187.459 153.248 187.951 153.38 188.467 153.38C188.995 153.38 189.487 153.248 189.943 152.984C190.399 152.72 190.765 152.336 191.041 151.832C191.329 151.316 191.473 150.716 191.473 150.032ZM10.278 172.082L4.194 186.662H2.07L4.086 181.838L0.18 172.082H2.466L5.256 179.642L8.154 172.082H10.278ZM16.1286 182.162C15.1926 182.162 14.3466 181.952 13.5906 181.532C12.8346 181.1 12.2406 180.5 11.8086 179.732C11.3766 178.952 11.1606 178.052 11.1606 177.032C11.1606 176.024 11.3826 175.13 11.8266 174.35C12.2706 173.57 12.8766 172.97 13.6446 172.55C14.4126 172.13 15.2706 171.92 16.2186 171.92C17.1666 171.92 18.0246 172.13 18.7926 172.55C19.5606 172.97 20.1666 173.57 20.6106 174.35C21.0546 175.13 21.2766 176.024 21.2766 177.032C21.2766 178.04 21.0486 178.934 20.5926 179.714C20.1366 180.494 19.5126 181.1 18.7206 181.532C17.9406 181.952 17.0766 182.162 16.1286 182.162ZM16.1286 180.38C16.6566 180.38 17.1486 180.254 17.6046 180.002C18.0726 179.75 18.4506 179.372 18.7386 178.868C19.0266 178.364 19.1706 177.752 19.1706 177.032C19.1706 176.312 19.0326 175.706 18.7566 175.214C18.4806 174.71 18.1146 174.332 17.6586 174.08C17.2026 173.828 16.7106 173.702 16.1826 173.702C15.6546 173.702 15.1626 173.828 14.7066 174.08C14.2626 174.332 13.9086 174.71 13.6446 175.214C13.3806 175.706 13.2486 176.312 13.2486 177.032C13.2486 178.1 13.5186 178.928 14.0586 179.516C14.6106 180.092 15.3006 180.38 16.1286 180.38ZM32.2871 172.082V182H30.2351V180.83C29.9111 181.238 29.4851 181.562 28.9571 181.802C28.4411 182.03 27.8891 182.144 27.3011 182.144C26.5211 182.144 25.8191 181.982 25.1951 181.658C24.5831 181.334 24.0971 180.854 23.7371 180.218C23.3891 179.582 23.2151 178.814 23.2151 177.914V172.082H25.2491V177.608C25.2491 178.496 25.4711 179.18 25.9151 179.66C26.3591 180.128 26.9651 180.362 27.7331 180.362C28.5011 180.362 29.1071 180.128 29.5511 179.66C30.0071 179.18 30.2351 178.496 30.2351 177.608V172.082H32.2871ZM37.0465 173.522C37.3465 173.018 37.7425 172.628 38.2345 172.352C38.7385 172.064 39.3325 171.92 40.0165 171.92V174.044H39.4945C38.6905 174.044 38.0785 174.248 37.6585 174.656C37.2505 175.064 37.0465 175.772 37.0465 176.78V182H34.9945V172.082H37.0465V173.522ZM50.7365 173.756H48.9005V182H46.8305V173.756H45.6605V172.082H46.8305V171.38C46.8305 170.24 47.1305 169.412 47.7305 168.896C48.3425 168.368 49.2965 168.104 50.5925 168.104V169.814C49.9685 169.814 49.5305 169.934 49.2785 170.174C49.0265 170.402 48.9005 170.804 48.9005 171.38V172.082H50.7365V173.756ZM51.8711 176.996C51.8711 176 52.0751 175.118 52.4831 174.35C52.9031 173.582 53.4671 172.988 54.1751 172.568C54.8951 172.136 55.6871 171.92 56.5511 171.92C57.3311 171.92 58.0091 172.076 58.5851 172.388C59.1731 172.688 59.6411 173.066 59.9891 173.522V172.082H62.0591V182H59.9891V180.524C59.6411 180.992 59.1671 181.382 58.5671 181.694C57.9671 182.006 57.2831 182.162 56.5151 182.162C55.6631 182.162 54.8831 181.946 54.1751 181.514C53.4671 181.07 52.9031 180.458 52.4831 179.678C52.0751 178.886 51.8711 177.992 51.8711 176.996ZM59.9891 177.032C59.9891 176.348 59.8451 175.754 59.5571 175.25C59.2811 174.746 58.9151 174.362 58.4591 174.098C58.0031 173.834 57.5111 173.702 56.9831 173.702C56.4551 173.702 55.9631 173.834 55.5071 174.098C55.0511 174.35 54.6791 174.728 54.3911 175.232C54.1151 175.724 53.9771 176.312 53.9771 176.996C53.9771 177.68 54.1151 178.28 54.3911 178.796C54.6791 179.312 55.0511 179.708 55.5071 179.984C55.9751 180.248 56.4671 180.38 56.9831 180.38C57.5111 180.38 58.0031 180.248 58.4591 179.984C58.9151 179.72 59.2811 179.336 59.5571 178.832C59.8451 178.316 59.9891 177.716 59.9891 177.032ZM68.5883 180.164L71.3963 172.082H73.5743L69.7943 182H67.3463L63.5843 172.082H65.7803L68.5883 180.164ZM79.4274 182.162C78.4914 182.162 77.6454 181.952 76.8894 181.532C76.1334 181.1 75.5394 180.5 75.1074 179.732C74.6754 178.952 74.4594 178.052 74.4594 177.032C74.4594 176.024 74.6814 175.13 75.1254 174.35C75.5694 173.57 76.1754 172.97 76.9434 172.55C77.7114 172.13 78.5694 171.92 79.5174 171.92C80.4654 171.92 81.3234 172.13 82.0914 172.55C82.8594 172.97 83.4654 173.57 83.9094 174.35C84.3534 175.13 84.5754 176.024 84.5754 177.032C84.5754 178.04 84.3474 178.934 83.8914 179.714C83.4354 180.494 82.8114 181.1 82.0194 181.532C81.2394 181.952 80.3754 182.162 79.4274 182.162ZM79.4274 180.38C79.9554 180.38 80.4474 180.254 80.9034 180.002C81.3714 179.75 81.7494 179.372 82.0374 178.868C82.3254 178.364 82.4694 177.752 82.4694 177.032C82.4694 176.312 82.3314 175.706 82.0554 175.214C81.7794 174.71 81.4134 174.332 80.9574 174.08C80.5014 173.828 80.0094 173.702 79.4814 173.702C78.9534 173.702 78.4614 173.828 78.0054 174.08C77.5614 174.332 77.2074 174.71 76.9434 175.214C76.6794 175.706 76.5474 176.312 76.5474 177.032C76.5474 178.1 76.8174 178.928 77.3574 179.516C77.9094 180.092 78.5994 180.38 79.4274 180.38ZM88.6559 173.522C88.9559 173.018 89.3519 172.628 89.8439 172.352C90.3479 172.064 90.9419 171.92 91.6259 171.92V174.044H91.1039C90.2999 174.044 89.6879 174.248 89.2679 174.656C88.8599 175.064 88.6559 175.772 88.6559 176.78V182H86.6039V172.082H88.6559V173.522ZM94.5561 170.768C94.1841 170.768 93.8721 170.642 93.6201 170.39C93.3681 170.138 93.2421 169.826 93.2421 169.454C93.2421 169.082 93.3681 168.77 93.6201 168.518C93.8721 168.266 94.1841 168.14 94.5561 168.14C94.9161 168.14 95.2221 168.266 95.4741 168.518C95.7261 168.77 95.8521 169.082 95.8521 169.454C95.8521 169.826 95.7261 170.138 95.4741 170.39C95.2221 170.642 94.9161 170.768 94.5561 170.768ZM95.5641 172.082V182H93.5121V172.082H95.5641ZM100.652 173.756V179.246C100.652 179.618 100.736 179.888 100.904 180.056C101.084 180.212 101.384 180.29 101.804 180.29H103.064V182H101.444C100.52 182 99.8122 181.784 99.3202 181.352C98.8282 180.92 98.5822 180.218 98.5822 179.246V173.756H97.4122V172.082H98.5822V169.616H100.652V172.082H103.064V173.756H100.652ZM114.045 176.798C114.045 177.17 114.021 177.506 113.973 177.806H106.395C106.455 178.598 106.749 179.234 107.277 179.714C107.805 180.194 108.453 180.434 109.221 180.434C110.325 180.434 111.105 179.972 111.561 179.048H113.775C113.475 179.96 112.929 180.71 112.137 181.298C111.357 181.874 110.385 182.162 109.221 182.162C108.273 182.162 107.421 181.952 106.665 181.532C105.921 181.1 105.333 180.5 104.901 179.732C104.481 178.952 104.271 178.052 104.271 177.032C104.271 176.012 104.475 175.118 104.883 174.35C105.303 173.57 105.885 172.97 106.629 172.55C107.385 172.13 108.249 171.92 109.221 171.92C110.157 171.92 110.991 172.124 111.723 172.532C112.455 172.94 113.025 173.516 113.433 174.26C113.841 174.992 114.045 175.838 114.045 176.798ZM111.903 176.15C111.891 175.394 111.621 174.788 111.093 174.332C110.565 173.876 109.911 173.648 109.131 173.648C108.423 173.648 107.817 173.876 107.313 174.332C106.809 174.776 106.509 175.382 106.413 176.15H111.903ZM122.793 173.54C123.141 173.084 123.615 172.7 124.215 172.388C124.815 172.076 125.493 171.92 126.249 171.92C127.113 171.92 127.899 172.136 128.607 172.568C129.327 172.988 129.891 173.582 130.299 174.35C130.707 175.118 130.911 176 130.911 176.996C130.911 177.992 130.707 178.886 130.299 179.678C129.891 180.458 129.327 181.07 128.607 181.514C127.899 181.946 127.113 182.162 126.249 182.162C125.493 182.162 124.821 182.012 124.233 181.712C123.645 181.4 123.165 181.016 122.793 180.56V186.716H120.741V172.082H122.793V173.54ZM128.823 176.996C128.823 176.312 128.679 175.724 128.391 175.232C128.115 174.728 127.743 174.35 127.275 174.098C126.819 173.834 126.327 173.702 125.799 173.702C125.283 173.702 124.791 173.834 124.323 174.098C123.867 174.362 123.495 174.746 123.207 175.25C122.931 175.754 122.793 176.348 122.793 177.032C122.793 177.716 122.931 178.316 123.207 178.832C123.495 179.336 123.867 179.72 124.323 179.984C124.791 180.248 125.283 180.38 125.799 180.38C126.327 180.38 126.819 180.248 127.275 179.984C127.743 179.708 128.115 179.312 128.391 178.796C128.679 178.28 128.823 177.68 128.823 176.996ZM134.992 168.68V182H132.94V168.68H134.992ZM137.002 176.996C137.002 176 137.206 175.118 137.614 174.35C138.034 173.582 138.598 172.988 139.306 172.568C140.026 172.136 140.818 171.92 141.682 171.92C142.462 171.92 143.14 172.076 143.716 172.388C144.304 172.688 144.772 173.066 145.12 173.522V172.082H147.19V182H145.12V180.524C144.772 180.992 144.298 181.382 143.698 181.694C143.098 182.006 142.414 182.162 141.646 182.162C140.794 182.162 140.014 181.946 139.306 181.514C138.598 181.07 138.034 180.458 137.614 179.678C137.206 178.886 137.002 177.992 137.002 176.996ZM145.12 177.032C145.12 176.348 144.976 175.754 144.688 175.25C144.412 174.746 144.046 174.362 143.59 174.098C143.134 173.834 142.642 173.702 142.114 173.702C141.586 173.702 141.094 173.834 140.638 174.098C140.182 174.35 139.81 174.728 139.522 175.232C139.246 175.724 139.108 176.312 139.108 176.996C139.108 177.68 139.246 178.28 139.522 178.796C139.81 179.312 140.182 179.708 140.638 179.984C141.106 180.248 141.598 180.38 142.114 180.38C142.642 180.38 143.134 180.248 143.59 179.984C144.046 179.72 144.412 179.336 144.688 178.832C144.976 178.316 145.12 177.716 145.12 177.032ZM154.889 171.92C155.669 171.92 156.365 172.082 156.977 172.406C157.601 172.73 158.087 173.21 158.435 173.846C158.783 174.482 158.957 175.25 158.957 176.15V182H156.923V176.456C156.923 175.568 156.701 174.89 156.257 174.422C155.813 173.942 155.207 173.702 154.439 173.702C153.671 173.702 153.059 173.942 152.603 174.422C152.159 174.89 151.937 175.568 151.937 176.456V182H149.885V172.082H151.937V173.216C152.273 172.808 152.699 172.49 153.215 172.262C153.743 172.034 154.301 171.92 154.889 171.92ZM163.969 173.756V179.246C163.969 179.618 164.053 179.888 164.221 180.056C164.401 180.212 164.701 180.29 165.121 180.29H166.381V182H164.761C163.837 182 163.129 181.784 162.637 181.352C162.145 180.92 161.899 180.218 161.899 179.246V173.756H160.729V172.082H161.899V169.616H163.969V172.082H166.381V173.756H163.969ZM171.872 182.162C171.092 182.162 170.39 182.024 169.766 181.748C169.154 181.46 168.668 181.076 168.308 180.596C167.948 180.104 167.756 179.558 167.732 178.958H169.856C169.892 179.378 170.09 179.732 170.45 180.02C170.822 180.296 171.284 180.434 171.836 180.434C172.412 180.434 172.856 180.326 173.168 180.11C173.492 179.882 173.654 179.594 173.654 179.246C173.654 178.874 173.474 178.598 173.114 178.418C172.766 178.238 172.208 178.04 171.44 177.824C170.696 177.62 170.09 177.422 169.622 177.23C169.154 177.038 168.746 176.744 168.398 176.348C168.062 175.952 167.894 175.43 167.894 174.782C167.894 174.254 168.05 173.774 168.362 173.342C168.674 172.898 169.118 172.55 169.694 172.298C170.282 172.046 170.954 171.92 171.71 171.92C172.838 171.92 173.744 172.208 174.428 172.784C175.124 173.348 175.496 174.122 175.544 175.106H173.492C173.456 174.662 173.276 174.308 172.952 174.044C172.628 173.78 172.19 173.648 171.638 173.648C171.098 173.648 170.684 173.75 170.396 173.954C170.108 174.158 169.964 174.428 169.964 174.764C169.964 175.028 170.06 175.25 170.252 175.43C170.444 175.61 170.678 175.754 170.954 175.862C171.23 175.958 171.638 176.084 172.178 176.24C172.898 176.432 173.486 176.63 173.942 176.834C174.41 177.026 174.812 177.314 175.148 177.698C175.484 178.082 175.658 178.592 175.67 179.228C175.67 179.792 175.514 180.296 175.202 180.74C174.89 181.184 174.446 181.532 173.87 181.784C173.306 182.036 172.64 182.162 171.872 182.162Z" fill="#1E1E1E" fill-opacity="0.5"/>
</svg>
