<svg width="148" height="51" viewBox="0 0 148 51" fill="none" xmlns="http://www.w3.org/2000/svg">
<rect x="0.5" width="147" height="51" rx="8" fill="white"/>
<path d="M27.9704 21.146V24.818H32.2904V26.492H27.9704V30.326H32.8304V32H25.9184V19.472H32.8304V21.146H27.9704ZM39.6058 26.978L42.8098 32H40.4878L38.3458 28.634L36.3298 32H34.1878L37.3918 27.122L34.1878 22.082H36.5098L38.6518 25.448L40.6678 22.082H42.8098L39.6058 26.978ZM46.3922 23.54C46.7402 23.084 47.2142 22.7 47.8142 22.388C48.4142 22.076 49.0922 21.92 49.8482 21.92C50.7122 21.92 51.4982 22.136 52.2062 22.568C52.9262 22.988 53.4902 23.582 53.8982 24.35C54.3062 25.118 54.5102 26 54.5102 26.996C54.5102 27.992 54.3062 28.886 53.8982 29.678C53.4902 30.458 52.9262 31.07 52.2062 31.514C51.4982 31.946 50.7122 32.162 49.8482 32.162C49.0922 32.162 48.4202 32.012 47.8322 31.712C47.2442 31.4 46.7642 31.016 46.3922 30.56V36.716H44.3402V22.082H46.3922V23.54ZM52.4222 26.996C52.4222 26.312 52.2782 25.724 51.9902 25.232C51.7142 24.728 51.3422 24.35 50.8742 24.098C50.4182 23.834 49.9262 23.702 49.3982 23.702C48.8822 23.702 48.3902 23.834 47.9222 24.098C47.4662 24.362 47.0942 24.746 46.8062 25.25C46.5302 25.754 46.3922 26.348 46.3922 27.032C46.3922 27.716 46.5302 28.316 46.8062 28.832C47.0942 29.336 47.4662 29.72 47.9222 29.984C48.3902 30.248 48.8822 30.38 49.3982 30.38C49.9262 30.38 50.4182 30.248 50.8742 29.984C51.3422 29.708 51.7142 29.312 51.9902 28.796C52.2782 28.28 52.4222 27.68 52.4222 26.996ZM58.5915 18.68V32H56.5395V18.68H58.5915ZM65.5875 32.162C64.6515 32.162 63.8055 31.952 63.0495 31.532C62.2935 31.1 61.6995 30.5 61.2675 29.732C60.8355 28.952 60.6195 28.052 60.6195 27.032C60.6195 26.024 60.8415 25.13 61.2855 24.35C61.7295 23.57 62.3355 22.97 63.1035 22.55C63.8715 22.13 64.7295 21.92 65.6775 21.92C66.6255 21.92 67.4835 22.13 68.2515 22.55C69.0195 22.97 69.6255 23.57 70.0695 24.35C70.5135 25.13 70.7355 26.024 70.7355 27.032C70.7355 28.04 70.5075 28.934 70.0515 29.714C69.5955 30.494 68.9715 31.1 68.1795 31.532C67.3995 31.952 66.5355 32.162 65.5875 32.162ZM65.5875 30.38C66.1155 30.38 66.6075 30.254 67.0635 30.002C67.5315 29.75 67.9095 29.372 68.1975 28.868C68.4855 28.364 68.6295 27.752 68.6295 27.032C68.6295 26.312 68.4915 25.706 68.2155 25.214C67.9395 24.71 67.5735 24.332 67.1175 24.08C66.6615 23.828 66.1695 23.702 65.6415 23.702C65.1135 23.702 64.6215 23.828 64.1655 24.08C63.7215 24.332 63.3675 24.71 63.1035 25.214C62.8395 25.706 62.7075 26.312 62.7075 27.032C62.7075 28.1 62.9775 28.928 63.5175 29.516C64.0695 30.092 64.7595 30.38 65.5875 30.38ZM74.8161 23.522C75.1161 23.018 75.5121 22.628 76.0041 22.352C76.5081 22.064 77.1021 21.92 77.7861 21.92V24.044H77.2641C76.4601 24.044 75.8481 24.248 75.4281 24.656C75.0201 25.064 74.8161 25.772 74.8161 26.78V32H72.7641V22.082H74.8161V23.522ZM88.7623 26.798C88.7623 27.17 88.7383 27.506 88.6903 27.806H81.1123C81.1723 28.598 81.4663 29.234 81.9943 29.714C82.5223 30.194 83.1703 30.434 83.9383 30.434C85.0423 30.434 85.8223 29.972 86.2783 29.048H88.4923C88.1923 29.96 87.6463 30.71 86.8543 31.298C86.0743 31.874 85.1023 32.162 83.9383 32.162C82.9903 32.162 82.1383 31.952 81.3823 31.532C80.6383 31.1 80.0503 30.5 79.6183 29.732C79.1983 28.952 78.9883 28.052 78.9883 27.032C78.9883 26.012 79.1923 25.118 79.6003 24.35C80.0203 23.57 80.6023 22.97 81.3463 22.55C82.1023 22.13 82.9663 21.92 83.9383 21.92C84.8743 21.92 85.7083 22.124 86.4403 22.532C87.1723 22.94 87.7423 23.516 88.1503 24.26C88.5583 24.992 88.7623 25.838 88.7623 26.798ZM86.6203 26.15C86.6083 25.394 86.3383 24.788 85.8103 24.332C85.2823 23.876 84.6283 23.648 83.8483 23.648C83.1403 23.648 82.5343 23.876 82.0303 24.332C81.5263 24.776 81.2263 25.382 81.1303 26.15H86.6203Z" fill="#1E1E1E"/>
<path fill-rule="evenodd" clip-rule="evenodd" d="M101 25.5001C101 25.3343 101.079 25.1753 101.22 25.0581C101.36 24.9409 101.551 24.8751 101.75 24.8751H119.44L114.719 20.9426C114.578 20.8252 114.499 20.666 114.499 20.5001C114.499 20.3341 114.578 20.1749 114.719 20.0576C114.86 19.9402 115.051 19.8743 115.25 19.8743C115.449 19.8743 115.64 19.9402 115.781 20.0576L121.781 25.0576C121.851 25.1156 121.906 25.1846 121.944 25.2605C121.982 25.3364 122.001 25.4178 122.001 25.5001C122.001 25.5823 121.982 25.6637 121.944 25.7396C121.906 25.8155 121.851 25.8845 121.781 25.9426L115.781 30.9426C115.64 31.0599 115.449 31.1258 115.25 31.1258C115.051 31.1258 114.86 31.0599 114.719 30.9426C114.578 30.8252 114.499 30.666 114.499 30.5001C114.499 30.3341 114.578 30.1749 114.719 30.0576L119.44 26.1251H101.75C101.551 26.1251 101.36 26.0592 101.22 25.942C101.079 25.8248 101 25.6658 101 25.5001Z" fill="#1E1E1E"/>
</svg>
